<mxfile host="app.diagrams.net" modified="2022-05-16T14:18:38.440Z" agent="5.0 (Windows NT 6.3; Win64; x64) AppleWebKit/537.36 (KHTML, like Gecko) Chrome/101.0.4951.54 Safari/537.36" etag="U3Aq1VshaXEnNlb8Ohxs" version="18.0.2" type="github">
  <diagram id="swQDrEQaeneFFi_RbNzI" name="Page-1">
    <mxGraphModel dx="1188" dy="672" grid="1" gridSize="11" guides="1" tooltips="1" connect="1" arrows="1" fold="1" page="1" pageScale="1" pageWidth="1654" pageHeight="2336" math="0" shadow="0">
      <root>
        <mxCell id="0" />
        <mxCell id="1" parent="0" />
        <mxCell id="rvYTLIkTiq6AKJXwLt1Q-142" value="&amp;nbsp;Funcionário" style="shape=umlActor;verticalLabelPosition=bottom;verticalAlign=top;html=1;outlineConnect=0;" vertex="1" parent="1">
          <mxGeometry x="80" y="90" width="50" height="110" as="geometry" />
        </mxCell>
        <mxCell id="rvYTLIkTiq6AKJXwLt1Q-146" value="&lt;p style=&quot;line-height: 0.8;&quot;&gt;&lt;/p&gt;&lt;div style=&quot;&quot;&gt;&lt;span style=&quot;background-color: initial;&quot;&gt;&lt;font face=&quot;Verdana&quot; style=&quot;font-size: 14px;&quot;&gt;RF01&lt;/font&gt;&lt;/span&gt;&lt;/div&gt;&lt;div style=&quot;&quot;&gt;&lt;span style=&quot;background-color: initial;&quot;&gt;&lt;font face=&quot;Verdana&quot; style=&quot;font-size: 14px;&quot;&gt;Cadastrar&amp;nbsp;&lt;/font&gt;&lt;/span&gt;&lt;/div&gt;&lt;span style=&quot;font-size: 14px;&quot;&gt;&lt;font face=&quot;Verdana&quot;&gt;despesas&lt;/font&gt;&lt;/span&gt;&lt;p&gt;&lt;/p&gt;" style="ellipse;whiteSpace=wrap;html=1;align=center;" vertex="1" parent="1">
          <mxGeometry x="330" y="50" width="165" height="100" as="geometry" />
        </mxCell>
        <mxCell id="rvYTLIkTiq6AKJXwLt1Q-148" value="" style="endArrow=classic;html=1;rounded=0;shadow=1;fontFamily=Helvetica;fontSize=14;fontColor=#191919;targetPerimeterSpacing=1;strokeColor=#000000;strokeWidth=1;jumpSize=8;entryX=0;entryY=0.61;entryDx=0;entryDy=0;entryPerimeter=0;" edge="1" parent="1" source="rvYTLIkTiq6AKJXwLt1Q-142" target="rvYTLIkTiq6AKJXwLt1Q-146">
          <mxGeometry width="50" height="50" relative="1" as="geometry">
            <mxPoint x="140" y="140" as="sourcePoint" />
            <mxPoint x="320" y="110" as="targetPoint" />
          </mxGeometry>
        </mxCell>
        <mxCell id="rvYTLIkTiq6AKJXwLt1Q-149" value="" style="endArrow=classic;html=1;rounded=0;shadow=1;fontFamily=Helvetica;fontSize=14;fontColor=#191919;targetPerimeterSpacing=1;strokeColor=#000000;strokeWidth=1;jumpSize=8;entryX=0.031;entryY=0.4;entryDx=0;entryDy=0;entryPerimeter=0;" edge="1" parent="1" source="rvYTLIkTiq6AKJXwLt1Q-142" target="rvYTLIkTiq6AKJXwLt1Q-150">
          <mxGeometry width="50" height="50" relative="1" as="geometry">
            <mxPoint x="150" y="160" as="sourcePoint" />
            <mxPoint x="330" y="200" as="targetPoint" />
          </mxGeometry>
        </mxCell>
        <mxCell id="rvYTLIkTiq6AKJXwLt1Q-150" value="&lt;font style=&quot;font-size: 14px;&quot; face=&quot;Verdana&quot;&gt;RF02&lt;br&gt;Enviar&lt;br&gt;para a tabela&lt;br&gt;&lt;/font&gt;" style="ellipse;whiteSpace=wrap;html=1;fontFamily=Helvetica;fontSize=14;fontColor=#191919;" vertex="1" parent="1">
          <mxGeometry x="335" y="160" width="160" height="100" as="geometry" />
        </mxCell>
        <mxCell id="rvYTLIkTiq6AKJXwLt1Q-151" value="" style="endArrow=classic;html=1;rounded=0;shadow=1;fontFamily=Verdana;fontSize=14;fontColor=#191919;targetPerimeterSpacing=1;strokeColor=#000000;strokeWidth=1;jumpSize=8;entryX=0;entryY=0.36;entryDx=0;entryDy=0;entryPerimeter=0;" edge="1" parent="1" source="rvYTLIkTiq6AKJXwLt1Q-142" target="rvYTLIkTiq6AKJXwLt1Q-152">
          <mxGeometry width="50" height="50" relative="1" as="geometry">
            <mxPoint x="130" y="180" as="sourcePoint" />
            <mxPoint x="320" y="300" as="targetPoint" />
          </mxGeometry>
        </mxCell>
        <mxCell id="rvYTLIkTiq6AKJXwLt1Q-153" value="" style="endArrow=classic;html=1;rounded=0;shadow=1;fontFamily=Verdana;fontSize=14;fontColor=#191919;targetPerimeterSpacing=1;strokeColor=#000000;strokeWidth=1;jumpSize=8;entryX=0.031;entryY=0.27;entryDx=0;entryDy=0;entryPerimeter=0;" edge="1" parent="1" source="rvYTLIkTiq6AKJXwLt1Q-142" target="rvYTLIkTiq6AKJXwLt1Q-155">
          <mxGeometry width="50" height="50" relative="1" as="geometry">
            <mxPoint x="130" y="190" as="sourcePoint" />
            <mxPoint x="300" y="400" as="targetPoint" />
          </mxGeometry>
        </mxCell>
        <mxCell id="rvYTLIkTiq6AKJXwLt1Q-155" value="RF04&lt;br&gt;Abrir DashBoard no Excel" style="ellipse;whiteSpace=wrap;html=1;fontFamily=Verdana;fontSize=14;fontColor=#191919;" vertex="1" parent="1">
          <mxGeometry x="320" y="380" width="160" height="100" as="geometry" />
        </mxCell>
        <mxCell id="rvYTLIkTiq6AKJXwLt1Q-159" value="&amp;lt;&amp;lt;include&amp;gt;&amp;gt;" style="endArrow=open;endSize=12;dashed=1;html=1;rounded=0;shadow=1;fontFamily=Verdana;fontSize=14;fontColor=#191919;targetPerimeterSpacing=1;strokeColor=#000000;strokeWidth=1;jumpSize=8;exitX=1.013;exitY=0.59;exitDx=0;exitDy=0;exitPerimeter=0;" edge="1" parent="1" source="rvYTLIkTiq6AKJXwLt1Q-155" target="rvYTLIkTiq6AKJXwLt1Q-175">
          <mxGeometry width="160" relative="1" as="geometry">
            <mxPoint x="480" y="429.5" as="sourcePoint" />
            <mxPoint x="690" y="450" as="targetPoint" />
            <mxPoint as="offset" />
          </mxGeometry>
        </mxCell>
        <mxCell id="rvYTLIkTiq6AKJXwLt1Q-161" value="RF05&lt;br&gt;Preencher todos os campos obrigatório&amp;nbsp;" style="ellipse;whiteSpace=wrap;html=1;fontFamily=Verdana;fontSize=14;fontColor=#191919;" vertex="1" parent="1">
          <mxGeometry x="660" y="20" width="150" height="90" as="geometry" />
        </mxCell>
        <mxCell id="rvYTLIkTiq6AKJXwLt1Q-162" value="RF06&lt;br&gt;Gerar id Automaticamente" style="ellipse;whiteSpace=wrap;html=1;fontFamily=Verdana;fontSize=14;fontColor=#191919;" vertex="1" parent="1">
          <mxGeometry x="750" y="100" width="140" height="90" as="geometry" />
        </mxCell>
        <mxCell id="rvYTLIkTiq6AKJXwLt1Q-163" value="&amp;lt;&amp;lt;extends&amp;gt;&amp;gt;" style="endArrow=open;endSize=12;dashed=1;html=1;rounded=0;shadow=0;fontFamily=Verdana;fontSize=14;fontColor=#191919;targetPerimeterSpacing=1;strokeColor=#B20000;strokeWidth=1;jumpSize=8;fillColor=#e51400;" edge="1" parent="1" target="rvYTLIkTiq6AKJXwLt1Q-146">
          <mxGeometry width="160" relative="1" as="geometry">
            <mxPoint x="750" y="140" as="sourcePoint" />
            <mxPoint x="500" y="120" as="targetPoint" />
            <Array as="points" />
          </mxGeometry>
        </mxCell>
        <mxCell id="rvYTLIkTiq6AKJXwLt1Q-164" value="&amp;lt;&amp;lt;include&amp;gt;&amp;gt;" style="endArrow=open;endSize=12;dashed=1;html=1;rounded=0;shadow=0;fontFamily=Verdana;fontSize=14;fontColor=#191919;targetPerimeterSpacing=1;strokeColor=#000000;strokeWidth=1;jumpSize=8;exitX=0.97;exitY=0.29;exitDx=0;exitDy=0;exitPerimeter=0;" edge="1" parent="1" source="rvYTLIkTiq6AKJXwLt1Q-146" target="rvYTLIkTiq6AKJXwLt1Q-161">
          <mxGeometry width="160" relative="1" as="geometry">
            <mxPoint x="480" y="64.5" as="sourcePoint" />
            <mxPoint x="640" y="64.5" as="targetPoint" />
            <Array as="points">
              <mxPoint x="640" y="70" />
            </Array>
          </mxGeometry>
        </mxCell>
        <mxCell id="rvYTLIkTiq6AKJXwLt1Q-166" value="RF09&lt;br&gt;Buscar funcionário pelo id" style="ellipse;whiteSpace=wrap;html=1;fontFamily=Verdana;fontSize=14;fontColor=#191919;" vertex="1" parent="1">
          <mxGeometry x="650" y="320" width="170" height="90" as="geometry" />
        </mxCell>
        <mxCell id="rvYTLIkTiq6AKJXwLt1Q-152" value="RF03&lt;br&gt;Excluir dados&amp;nbsp;" style="ellipse;whiteSpace=wrap;html=1;fontFamily=Verdana;fontSize=14;fontColor=#191919;" vertex="1" parent="1">
          <mxGeometry x="330" y="270" width="165" height="100" as="geometry" />
        </mxCell>
        <mxCell id="rvYTLIkTiq6AKJXwLt1Q-170" value="RF07&lt;br&gt;Anexar imagem" style="ellipse;whiteSpace=wrap;html=1;fontFamily=Verdana;fontSize=14;fontColor=#191919;" vertex="1" parent="1">
          <mxGeometry x="745" y="200" width="150" height="80" as="geometry" />
        </mxCell>
        <mxCell id="rvYTLIkTiq6AKJXwLt1Q-171" value="&amp;lt;&amp;lt;include&amp;gt;&amp;gt;" style="endArrow=open;endSize=12;dashed=1;html=1;rounded=0;shadow=0;fontFamily=Verdana;fontSize=14;fontColor=#191919;targetPerimeterSpacing=1;strokeColor=#000000;strokeWidth=1;jumpSize=8;labelPosition=center;verticalLabelPosition=middle;align=center;verticalAlign=middle;entryX=0.933;entryY=0.76;entryDx=0;entryDy=0;entryPerimeter=0;exitX=0.04;exitY=0.313;exitDx=0;exitDy=0;exitPerimeter=0;" edge="1" parent="1" source="rvYTLIkTiq6AKJXwLt1Q-170" target="rvYTLIkTiq6AKJXwLt1Q-146">
          <mxGeometry x="-0.1591" width="160" relative="1" as="geometry">
            <mxPoint x="720" y="199" as="sourcePoint" />
            <mxPoint x="690" y="199" as="targetPoint" />
            <Array as="points">
              <mxPoint x="640" y="180" />
            </Array>
            <mxPoint as="offset" />
          </mxGeometry>
        </mxCell>
        <mxCell id="rvYTLIkTiq6AKJXwLt1Q-172" value="RF08&lt;br&gt;&amp;nbsp;Armazenar dados&amp;nbsp;" style="ellipse;whiteSpace=wrap;html=1;fontFamily=Verdana;fontSize=14;fontColor=#191919;rotation=5;" vertex="1" parent="1">
          <mxGeometry x="840" y="310" width="150" height="80" as="geometry" />
        </mxCell>
        <mxCell id="rvYTLIkTiq6AKJXwLt1Q-173" value="&amp;nbsp;&amp;lt;&amp;lt;include&amp;gt;&amp;gt;" style="endArrow=open;endSize=12;dashed=1;html=1;rounded=0;shadow=0;fontFamily=Verdana;fontSize=14;fontColor=#191919;targetPerimeterSpacing=1;strokeColor=#000000;strokeWidth=1;jumpSize=8;exitX=1;exitY=1;exitDx=0;exitDy=0;entryX=0.055;entryY=0.262;entryDx=0;entryDy=0;entryPerimeter=0;fillColor=#e51400;" edge="1" parent="1" source="rvYTLIkTiq6AKJXwLt1Q-146" target="rvYTLIkTiq6AKJXwLt1Q-172">
          <mxGeometry x="-0.0901" y="2" width="160" relative="1" as="geometry">
            <mxPoint x="500" y="209.5" as="sourcePoint" />
            <mxPoint x="550" y="250" as="targetPoint" />
            <Array as="points">
              <mxPoint x="500" y="150" />
            </Array>
            <mxPoint as="offset" />
          </mxGeometry>
        </mxCell>
        <mxCell id="rvYTLIkTiq6AKJXwLt1Q-174" value="&amp;lt;&amp;lt;include&amp;gt;&amp;gt;" style="endArrow=open;endSize=12;dashed=1;html=1;rounded=0;shadow=0;fontFamily=Verdana;fontSize=14;fontColor=#191919;targetPerimeterSpacing=1;strokeColor=#000000;strokeWidth=1;jumpSize=8;exitX=1;exitY=0.5;exitDx=0;exitDy=0;" edge="1" parent="1" source="rvYTLIkTiq6AKJXwLt1Q-152">
          <mxGeometry width="160" relative="1" as="geometry">
            <mxPoint x="490" y="364.5" as="sourcePoint" />
            <mxPoint x="650" y="364.5" as="targetPoint" />
            <Array as="points" />
          </mxGeometry>
        </mxCell>
        <mxCell id="rvYTLIkTiq6AKJXwLt1Q-175" value="RF10&lt;br&gt;Atualizar os dados da planilha com Planilha.csv" style="ellipse;whiteSpace=wrap;html=1;fontFamily=Verdana;fontSize=14;fontColor=#191919;" vertex="1" parent="1">
          <mxGeometry x="710" y="410" width="160" height="100" as="geometry" />
        </mxCell>
        <mxCell id="rvYTLIkTiq6AKJXwLt1Q-177" value="&lt;font face=&quot;Georgia&quot; style=&quot;font-size: 21px;&quot;&gt;&lt;b style=&quot;font-size: 21px;&quot;&gt;Requisitos e Criticidade&lt;/b&gt;&lt;/font&gt;&amp;nbsp;" style="text;html=1;resizable=0;autosize=1;align=center;verticalAlign=middle;points=[];fillColor=none;strokeColor=none;rounded=0;fontFamily=Verdana;fontSize=21;fontColor=#191919;" vertex="1" parent="1">
          <mxGeometry x="370" y="540" width="280" height="30" as="geometry" />
        </mxCell>
        <mxCell id="rvYTLIkTiq6AKJXwLt1Q-178" value="&lt;font face=&quot;Verdana&quot; style=&quot;font-size: 17px;&quot;&gt;&lt;span style=&quot;line-height: 0.8;&quot;&gt;&lt;i style=&quot;&quot;&gt;Requisito&lt;br&gt;funcional&lt;/i&gt;&lt;/span&gt;&lt;/font&gt;" style="text;html=1;resizable=0;autosize=1;align=center;verticalAlign=middle;points=[];fillColor=none;strokeColor=none;rounded=0;fontFamily=Georgia;fontSize=21;fontColor=#191919;fontStyle=1" vertex="1" parent="1">
          <mxGeometry x="310" y="580" width="110" height="60" as="geometry" />
        </mxCell>
        <mxCell id="rvYTLIkTiq6AKJXwLt1Q-180" value="Descrição" style="text;html=1;resizable=0;autosize=1;align=center;verticalAlign=middle;points=[];fillColor=none;strokeColor=none;rounded=0;fontFamily=Verdana;fontSize=17;fontColor=#191919;fontStyle=1" vertex="1" parent="1">
          <mxGeometry x="495" y="600" width="110" height="30" as="geometry" />
        </mxCell>
        <mxCell id="rvYTLIkTiq6AKJXwLt1Q-181" value="Prioridades" style="text;html=1;resizable=0;autosize=1;align=center;verticalAlign=middle;points=[];fillColor=none;strokeColor=none;rounded=0;fontFamily=Verdana;fontSize=17;fontColor=#191919;fontStyle=1" vertex="1" parent="1">
          <mxGeometry x="740" y="600" width="120" height="30" as="geometry" />
        </mxCell>
        <mxCell id="rvYTLIkTiq6AKJXwLt1Q-183" value="Cadastrar as despesas do funcionário" style="text;html=1;resizable=0;autosize=1;align=center;verticalAlign=middle;points=[];fillColor=none;strokeColor=none;rounded=0;fontFamily=Verdana;fontSize=16;fontColor=#191919;fontStyle=0" vertex="1" parent="1">
          <mxGeometry x="410" y="650" width="320" height="20" as="geometry" />
        </mxCell>
        <mxCell id="rvYTLIkTiq6AKJXwLt1Q-185" value="RF01" style="text;html=1;resizable=0;autosize=1;align=center;verticalAlign=middle;points=[];fillColor=none;strokeColor=none;rounded=0;fontFamily=Verdana;fontSize=16;fontColor=#191919;fontStyle=1" vertex="1" parent="1">
          <mxGeometry x="335" y="650" width="60" height="20" as="geometry" />
        </mxCell>
        <mxCell id="rvYTLIkTiq6AKJXwLt1Q-186" value="Essencial" style="text;html=1;resizable=0;autosize=1;align=center;verticalAlign=middle;points=[];fillColor=none;strokeColor=none;rounded=0;fontFamily=Verdana;fontSize=16;fontColor=#191919;fontStyle=0" vertex="1" parent="1">
          <mxGeometry x="750" y="650" width="90" height="20" as="geometry" />
        </mxCell>
        <mxCell id="rvYTLIkTiq6AKJXwLt1Q-187" value="&lt;b&gt;RF02&lt;/b&gt;" style="text;html=1;resizable=0;autosize=1;align=center;verticalAlign=middle;points=[];fillColor=none;strokeColor=none;rounded=0;fontFamily=Verdana;fontSize=16;fontColor=#191919;" vertex="1" parent="1">
          <mxGeometry x="335" y="680" width="60" height="20" as="geometry" />
        </mxCell>
        <mxCell id="rvYTLIkTiq6AKJXwLt1Q-188" value="Enviar a tabela as informações" style="text;html=1;resizable=0;autosize=1;align=center;verticalAlign=middle;points=[];fillColor=none;strokeColor=none;rounded=0;fontFamily=Verdana;fontSize=16;fontColor=#191919;" vertex="1" parent="1">
          <mxGeometry x="420" y="680" width="260" height="20" as="geometry" />
        </mxCell>
        <mxCell id="rvYTLIkTiq6AKJXwLt1Q-189" value="Essencial" style="text;html=1;resizable=0;autosize=1;align=center;verticalAlign=middle;points=[];fillColor=none;strokeColor=none;rounded=0;fontFamily=Verdana;fontSize=16;fontColor=#191919;" vertex="1" parent="1">
          <mxGeometry x="750" y="680" width="90" height="20" as="geometry" />
        </mxCell>
        <mxCell id="rvYTLIkTiq6AKJXwLt1Q-190" value="RF03" style="text;html=1;resizable=0;autosize=1;align=center;verticalAlign=middle;points=[];fillColor=none;strokeColor=none;rounded=0;fontFamily=Verdana;fontSize=16;fontColor=#191919;fontStyle=1" vertex="1" parent="1">
          <mxGeometry x="335" y="710" width="60" height="20" as="geometry" />
        </mxCell>
        <mxCell id="rvYTLIkTiq6AKJXwLt1Q-191" value="Excluir dados do funcionário" style="text;html=1;resizable=0;autosize=1;align=center;verticalAlign=middle;points=[];fillColor=none;strokeColor=none;rounded=0;fontFamily=Verdana;fontSize=16;fontColor=#191919;" vertex="1" parent="1">
          <mxGeometry x="430" y="710" width="240" height="20" as="geometry" />
        </mxCell>
        <mxCell id="rvYTLIkTiq6AKJXwLt1Q-192" value="Essencial" style="text;html=1;resizable=0;autosize=1;align=center;verticalAlign=middle;points=[];fillColor=none;strokeColor=none;rounded=0;fontFamily=Verdana;fontSize=16;fontColor=#191919;" vertex="1" parent="1">
          <mxGeometry x="750" y="710" width="90" height="20" as="geometry" />
        </mxCell>
        <mxCell id="rvYTLIkTiq6AKJXwLt1Q-193" value="&lt;b&gt;RF04&lt;/b&gt;" style="text;html=1;resizable=0;autosize=1;align=center;verticalAlign=middle;points=[];fillColor=none;strokeColor=none;rounded=0;fontFamily=Verdana;fontSize=16;fontColor=#191919;" vertex="1" parent="1">
          <mxGeometry x="335" y="740" width="60" height="20" as="geometry" />
        </mxCell>
        <mxCell id="rvYTLIkTiq6AKJXwLt1Q-194" value="&lt;span style=&quot;font-size: 14px;&quot;&gt;&amp;nbsp;Abrir DashBoard no Excel&lt;/span&gt;" style="text;html=1;resizable=0;autosize=1;align=center;verticalAlign=middle;points=[];fillColor=none;strokeColor=none;rounded=0;fontFamily=Verdana;fontSize=16;fontColor=#191919;" vertex="1" parent="1">
          <mxGeometry x="440" y="735" width="200" height="30" as="geometry" />
        </mxCell>
        <mxCell id="rvYTLIkTiq6AKJXwLt1Q-195" value="Essencial" style="text;html=1;resizable=0;autosize=1;align=center;verticalAlign=middle;points=[];fillColor=none;strokeColor=none;rounded=0;fontFamily=Verdana;fontSize=16;fontColor=#191919;" vertex="1" parent="1">
          <mxGeometry x="750" y="740" width="90" height="20" as="geometry" />
        </mxCell>
        <mxCell id="rvYTLIkTiq6AKJXwLt1Q-196" value="RF05" style="text;html=1;resizable=0;autosize=1;align=center;verticalAlign=middle;points=[];fillColor=none;strokeColor=none;rounded=0;fontFamily=Verdana;fontSize=16;fontColor=#191919;fontStyle=1" vertex="1" parent="1">
          <mxGeometry x="335" y="770" width="60" height="20" as="geometry" />
        </mxCell>
        <mxCell id="rvYTLIkTiq6AKJXwLt1Q-197" value="Validar se todos os campos está preenchido" style="text;html=1;resizable=0;autosize=1;align=center;verticalAlign=middle;points=[];fillColor=none;strokeColor=none;rounded=0;fontFamily=Verdana;fontSize=15;fontColor=#191919;" vertex="1" parent="1">
          <mxGeometry x="395" y="770" width="350" height="20" as="geometry" />
        </mxCell>
        <mxCell id="rvYTLIkTiq6AKJXwLt1Q-198" value="Importante" style="text;html=1;resizable=0;autosize=1;align=center;verticalAlign=middle;points=[];fillColor=none;strokeColor=none;rounded=0;fontFamily=Verdana;fontSize=16;fontColor=#191919;" vertex="1" parent="1">
          <mxGeometry x="745" y="770" width="110" height="20" as="geometry" />
        </mxCell>
        <mxCell id="rvYTLIkTiq6AKJXwLt1Q-199" value="&lt;b&gt;RF06&lt;/b&gt;" style="text;html=1;resizable=0;autosize=1;align=center;verticalAlign=middle;points=[];fillColor=none;strokeColor=none;rounded=0;fontFamily=Verdana;fontSize=16;fontColor=#191919;" vertex="1" parent="1">
          <mxGeometry x="335" y="800" width="60" height="20" as="geometry" />
        </mxCell>
        <mxCell id="rvYTLIkTiq6AKJXwLt1Q-200" value="Gerar Id automaticamente" style="text;html=1;resizable=0;autosize=1;align=center;verticalAlign=middle;points=[];fillColor=none;strokeColor=none;rounded=0;fontFamily=Verdana;fontSize=16;fontColor=#191919;" vertex="1" parent="1">
          <mxGeometry x="440" y="800" width="230" height="20" as="geometry" />
        </mxCell>
        <mxCell id="rvYTLIkTiq6AKJXwLt1Q-201" value="Desejável" style="text;html=1;resizable=0;autosize=1;align=center;verticalAlign=middle;points=[];fillColor=none;strokeColor=none;rounded=0;fontFamily=Verdana;fontSize=16;fontColor=#191919;" vertex="1" parent="1">
          <mxGeometry x="750" y="800" width="90" height="20" as="geometry" />
        </mxCell>
        <mxCell id="rvYTLIkTiq6AKJXwLt1Q-202" value="&lt;b&gt;RF07&lt;/b&gt;" style="text;html=1;resizable=0;autosize=1;align=center;verticalAlign=middle;points=[];fillColor=none;strokeColor=none;rounded=0;fontFamily=Verdana;fontSize=16;fontColor=#191919;" vertex="1" parent="1">
          <mxGeometry x="335" y="830" width="60" height="20" as="geometry" />
        </mxCell>
        <mxCell id="rvYTLIkTiq6AKJXwLt1Q-203" value="Anexar imagem da nota fiscal" style="text;html=1;resizable=0;autosize=1;align=center;verticalAlign=middle;points=[];fillColor=none;strokeColor=none;rounded=0;fontFamily=Verdana;fontSize=16;fontColor=#191919;" vertex="1" parent="1">
          <mxGeometry x="430" y="830" width="260" height="20" as="geometry" />
        </mxCell>
        <mxCell id="rvYTLIkTiq6AKJXwLt1Q-204" value="Importante" style="text;html=1;resizable=0;autosize=1;align=center;verticalAlign=middle;points=[];fillColor=none;strokeColor=none;rounded=0;fontFamily=Verdana;fontSize=16;fontColor=#191919;" vertex="1" parent="1">
          <mxGeometry x="745" y="830" width="110" height="20" as="geometry" />
        </mxCell>
        <mxCell id="rvYTLIkTiq6AKJXwLt1Q-205" value="&lt;b&gt;RF08&lt;/b&gt;" style="text;html=1;resizable=0;autosize=1;align=center;verticalAlign=middle;points=[];fillColor=none;strokeColor=none;rounded=0;fontFamily=Verdana;fontSize=16;fontColor=#191919;" vertex="1" parent="1">
          <mxGeometry x="335" y="860" width="60" height="20" as="geometry" />
        </mxCell>
        <mxCell id="rvYTLIkTiq6AKJXwLt1Q-206" value="Armazenar dados no BD" style="text;html=1;resizable=0;autosize=1;align=center;verticalAlign=middle;points=[];fillColor=none;strokeColor=none;rounded=0;fontFamily=Verdana;fontSize=16;fontColor=#191919;" vertex="1" parent="1">
          <mxGeometry x="435" y="860" width="210" height="20" as="geometry" />
        </mxCell>
        <mxCell id="rvYTLIkTiq6AKJXwLt1Q-207" value="Essencial" style="text;html=1;resizable=0;autosize=1;align=center;verticalAlign=middle;points=[];fillColor=none;strokeColor=none;rounded=0;fontFamily=Verdana;fontSize=16;fontColor=#191919;" vertex="1" parent="1">
          <mxGeometry x="750" y="860" width="90" height="20" as="geometry" />
        </mxCell>
        <mxCell id="rvYTLIkTiq6AKJXwLt1Q-208" value="RF09" style="text;html=1;resizable=0;autosize=1;align=center;verticalAlign=middle;points=[];fillColor=none;strokeColor=none;rounded=0;fontFamily=Verdana;fontSize=15;fontColor=#191919;fontStyle=1" vertex="1" parent="1">
          <mxGeometry x="337.5" y="891" width="55" height="22" as="geometry" />
        </mxCell>
        <mxCell id="rvYTLIkTiq6AKJXwLt1Q-209" value="Buscar funcionário pelo Id" style="text;html=1;resizable=0;autosize=1;align=center;verticalAlign=middle;points=[];fillColor=none;strokeColor=none;rounded=0;fontFamily=Verdana;fontSize=15;fontColor=#191919;" vertex="1" parent="1">
          <mxGeometry x="441" y="891" width="209" height="22" as="geometry" />
        </mxCell>
        <mxCell id="rvYTLIkTiq6AKJXwLt1Q-210" value="Desejável" style="text;html=1;resizable=0;autosize=1;align=center;verticalAlign=middle;points=[];fillColor=none;strokeColor=none;rounded=0;fontFamily=Verdana;fontSize=15;fontColor=#191919;" vertex="1" parent="1">
          <mxGeometry x="751" y="891" width="88" height="22" as="geometry" />
        </mxCell>
        <mxCell id="rvYTLIkTiq6AKJXwLt1Q-211" value="RF10" style="text;html=1;resizable=0;autosize=1;align=center;verticalAlign=middle;points=[];fillColor=none;strokeColor=none;rounded=0;fontFamily=Verdana;fontSize=15;fontColor=#191919;fontStyle=1" vertex="1" parent="1">
          <mxGeometry x="335" y="924" width="55" height="22" as="geometry" />
        </mxCell>
        <mxCell id="rvYTLIkTiq6AKJXwLt1Q-212" value="&lt;span style=&quot;font-size: 15px;&quot;&gt;&amp;nbsp;&lt;/span&gt;&lt;br style=&quot;font-size: 15px;&quot;&gt;&lt;span style=&quot;font-size: 15px;&quot;&gt;Atualizar os dados da planilha com Planilha.csv&lt;/span&gt;" style="text;html=1;resizable=0;autosize=1;align=center;verticalAlign=middle;points=[];fillColor=none;strokeColor=none;rounded=0;fontFamily=Verdana;fontSize=15;fontColor=#191919;" vertex="1" parent="1">
          <mxGeometry x="388" y="902" width="374" height="44" as="geometry" />
        </mxCell>
        <mxCell id="rvYTLIkTiq6AKJXwLt1Q-213" value="Importante" style="text;html=1;resizable=0;autosize=1;align=center;verticalAlign=middle;points=[];fillColor=none;strokeColor=none;rounded=0;fontFamily=Verdana;fontSize=14;fontColor=#191919;" vertex="1" parent="1">
          <mxGeometry x="750" y="924" width="99" height="22" as="geometry" />
        </mxCell>
        <mxCell id="rvYTLIkTiq6AKJXwLt1Q-215" value="Modelo" style="shape=folder;fontStyle=1;spacingTop=10;tabWidth=40;tabHeight=14;tabPosition=left;html=1;fontFamily=Verdana;fontSize=14;fontColor=#191919;" vertex="1" parent="1">
          <mxGeometry x="55" y="1452" width="77" height="55" as="geometry" />
        </mxCell>
        <mxCell id="rvYTLIkTiq6AKJXwLt1Q-226" value="" style="shape=partialRectangle;whiteSpace=wrap;html=1;bottom=0;right=0;fillColor=none;fontFamily=Verdana;fontSize=14;fontColor=#191919;verticalAlign=middle;spacingLeft=0;rotation=0;labelPosition=center;verticalLabelPosition=middle;align=center;flipH=1;" vertex="1" parent="1">
          <mxGeometry x="132" y="1474" width="175" height="60" as="geometry" />
        </mxCell>
        <mxCell id="rvYTLIkTiq6AKJXwLt1Q-227" value="&lt;p style=&quot;margin: 4px 0px 0px; text-align: center; font-size: 13px;&quot;&gt;&lt;b&gt;&lt;font style=&quot;font-size: 13px;&quot;&gt;Cadastro&lt;/font&gt;&lt;/b&gt;&lt;/p&gt;&lt;hr style=&quot;font-size: 13px;&quot; size=&quot;1&quot;&gt;&lt;p style=&quot;margin: 0px 0px 0px 4px; font-size: 13px;&quot;&gt;&lt;/p&gt;&lt;p style=&quot;margin: 0px 0px 0px 4px;&quot;&gt;&lt;font style=&quot;font-size: 13px;&quot;&gt;- Id&lt;/font&gt;&lt;font style=&quot;font-size: 13px;&quot;&gt;: int&lt;/font&gt;&lt;/p&gt;&lt;p style=&quot;margin: 0px 0px 0px 4px;&quot;&gt;&lt;font style=&quot;font-size: 13px;&quot;&gt;- funcionario:String&amp;nbsp;&amp;nbsp;&lt;/font&gt;&lt;/p&gt;&lt;p style=&quot;margin: 0px 0px 0px 4px;&quot;&gt;&lt;font style=&quot;font-size: 13px;&quot;&gt;- data: String&lt;/font&gt;&lt;/p&gt;&lt;p style=&quot;margin: 0px 0px 0px 4px;&quot;&gt;&lt;font style=&quot;font-size: 13px;&quot;&gt;- evento: String&lt;/font&gt;&lt;/p&gt;&lt;p style=&quot;margin: 0px 0px 0px 4px;&quot;&gt;&lt;font style=&quot;font-size: 13px;&quot;&gt;-despesas: String&lt;/font&gt;&lt;/p&gt;&lt;p style=&quot;margin: 0px 0px 0px 4px;&quot;&gt;&lt;font style=&quot;font-size: 13px;&quot;&gt;-valorDespesa: Double&lt;/font&gt;&lt;/p&gt;&lt;br&gt;&lt;p style=&quot;margin: 0px 0px 0px 4px;&quot;&gt;&lt;span style=&quot;font-size: 11px;&quot;&gt;&amp;nbsp;&lt;/span&gt;&lt;font style=&quot;font-size: 12px;&quot;&gt;+Cadastro(String,String,String,String,String,Double)&lt;/font&gt;&lt;/p&gt;&lt;p style=&quot;margin: 0px 0px 0px 4px;&quot;&gt;&amp;nbsp;+Cadastro(String).&lt;/p&gt;&lt;p style=&quot;margin: 0px 0px 0px 4px;&quot;&gt;&amp;nbsp;+Getters &amp;amp;&amp;amp; Setters&lt;/p&gt;&lt;p style=&quot;margin: 0px 0px 0px 4px;&quot;&gt;+toCSV():String&lt;/p&gt;" style="verticalAlign=top;align=left;overflow=fill;fontSize=12;fontFamily=Helvetica;html=1;fontColor=#191919;" vertex="1" parent="1">
          <mxGeometry x="154" y="1524.5" width="352" height="224.5" as="geometry" />
        </mxCell>
        <mxCell id="rvYTLIkTiq6AKJXwLt1Q-230" value="" style="line;strokeWidth=1;fillColor=none;align=left;verticalAlign=middle;spacingTop=-1;spacingLeft=3;spacingRight=3;rotatable=0;labelPosition=right;points=[];portConstraint=eastwest;fontFamily=Verdana;fontSize=13;fontColor=#191919;opacity=60;" vertex="1" parent="1">
          <mxGeometry x="154" y="1650" width="352" height="8" as="geometry" />
        </mxCell>
        <mxCell id="rvYTLIkTiq6AKJXwLt1Q-236" value="Controle" style="shape=folder;fontStyle=1;spacingTop=10;tabWidth=40;tabHeight=14;tabPosition=left;html=1;fontFamily=Verdana;fontSize=12;fontColor=#191919;opacity=60;" vertex="1" parent="1">
          <mxGeometry x="650" y="1452" width="81" height="55" as="geometry" />
        </mxCell>
        <mxCell id="rvYTLIkTiq6AKJXwLt1Q-238" value="" style="shape=partialRectangle;whiteSpace=wrap;html=1;bottom=0;right=0;fillColor=none;fontFamily=Verdana;fontSize=14;fontColor=#191919;verticalAlign=middle;spacingLeft=0;rotation=0;labelPosition=center;verticalLabelPosition=middle;align=center;flipH=1;" vertex="1" parent="1">
          <mxGeometry x="730" y="1474" width="175" height="60" as="geometry" />
        </mxCell>
        <mxCell id="rvYTLIkTiq6AKJXwLt1Q-239" value="&lt;p style=&quot;margin: 4px 0px 0px; text-align: center; font-size: 13px;&quot;&gt;&lt;b&gt;DAO&lt;/b&gt;&lt;/p&gt;&lt;hr style=&quot;font-size: 13px;&quot; size=&quot;1&quot;&gt;&lt;p style=&quot;margin: 0px 0px 0px 4px; font-size: 13px;&quot;&gt;&lt;/p&gt;&lt;p style=&quot;margin: 0px 0px 0px 4px;&quot;&gt;&lt;font style=&quot;font-size: 13px;&quot;&gt;-br: BufferedReader&lt;/font&gt;&lt;/p&gt;&lt;p style=&quot;margin: 0px 0px 0px 4px;&quot;&gt;&lt;font style=&quot;font-size: 13px;&quot;&gt;-bw: BufferedWriter&lt;/font&gt;&lt;/p&gt;&lt;p style=&quot;margin: 0px 0px 0px 4px;&quot;&gt;&lt;font style=&quot;font-size: 13px;&quot;&gt;-path: String&lt;/font&gt;&lt;/p&gt;&lt;p style=&quot;margin: 0px 0px 0px 4px;&quot;&gt;&lt;font style=&quot;font-size: 13px;&quot;&gt;&lt;br&gt;&lt;/font&gt;&lt;/p&gt;&lt;p style=&quot;margin: 0px 0px 0px 4px;&quot;&gt;&lt;font style=&quot;font-size: 13px;&quot;&gt;+ler(): ArrayList&amp;lt;Cadastro&amp;gt;&lt;/font&gt;&lt;/p&gt;&lt;p style=&quot;margin: 0px 0px 0px 4px;&quot;&gt;&lt;font style=&quot;font-size: 13px;&quot;&gt;+escrever(ArrayList&amp;lt;Cadastro&amp;gt;linhas): void&lt;/font&gt;&lt;/p&gt;" style="verticalAlign=top;align=left;overflow=fill;fontSize=12;fontFamily=Helvetica;html=1;fontColor=#191919;" vertex="1" parent="1">
          <mxGeometry x="715" y="1524.5" width="352" height="136.5" as="geometry" />
        </mxCell>
        <mxCell id="rvYTLIkTiq6AKJXwLt1Q-248" value="" style="endArrow=diamondThin;endFill=1;endSize=24;html=1;rounded=0;shadow=0;fontFamily=Verdana;fontSize=12;fontColor=#191919;targetPerimeterSpacing=1;strokeColor=#000000;strokeWidth=1;jumpSize=8;dashed=1;entryX=1;entryY=0.292;entryDx=0;entryDy=0;entryPerimeter=0;" edge="1" parent="1" target="rvYTLIkTiq6AKJXwLt1Q-227">
          <mxGeometry width="160" relative="1" as="geometry">
            <mxPoint x="715" y="1592" as="sourcePoint" />
            <mxPoint x="561" y="1592.25" as="targetPoint" />
          </mxGeometry>
        </mxCell>
        <mxCell id="rvYTLIkTiq6AKJXwLt1Q-249" value="&lt;p style=&quot;margin: 4px 0px 0px; text-align: center; font-size: 13px;&quot;&gt;&lt;b&gt;DespesaProcess&lt;/b&gt;&lt;/p&gt;&lt;hr style=&quot;font-size: 13px;&quot; size=&quot;1&quot;&gt;&lt;p style=&quot;margin: 0px 0px 0px 4px; font-size: 13px;&quot;&gt;&lt;/p&gt;&lt;p style=&quot;margin: 0px 0px 0px 4px;&quot;&gt;+des: ArrayList&amp;lt;Cadastro&amp;gt;&lt;/p&gt;&lt;p style=&quot;margin: 0px 0px 0px 4px;&quot;&gt;-ds = DAO&lt;/p&gt;&lt;p style=&quot;margin: 0px 0px 0px 4px;&quot;&gt;&lt;br&gt;&lt;/p&gt;&lt;p style=&quot;margin: 0px 0px 0px 4px;&quot;&gt;+abrir():void&lt;/p&gt;&lt;p style=&quot;margin: 0px 0px 0px 4px;&quot;&gt;+salvar():void&lt;/p&gt;" style="verticalAlign=top;align=left;overflow=fill;fontSize=12;fontFamily=Helvetica;html=1;fontColor=#191919;" vertex="1" parent="1">
          <mxGeometry x="710" y="1694" width="352" height="110" as="geometry" />
        </mxCell>
        <mxCell id="rvYTLIkTiq6AKJXwLt1Q-250" value="" style="endArrow=diamondThin;endFill=1;endSize=24;html=1;rounded=0;shadow=0;fontFamily=Verdana;fontSize=12;fontColor=#191919;targetPerimeterSpacing=1;strokeColor=#000000;strokeWidth=1;jumpSize=8;dashed=1;exitX=-0.003;exitY=0.205;exitDx=0;exitDy=0;exitPerimeter=0;" edge="1" parent="1" source="rvYTLIkTiq6AKJXwLt1Q-249" target="rvYTLIkTiq6AKJXwLt1Q-227">
          <mxGeometry width="160" relative="1" as="geometry">
            <mxPoint x="715" y="1717.95" as="sourcePoint" />
            <mxPoint x="506" y="1716.0040000000001" as="targetPoint" />
          </mxGeometry>
        </mxCell>
        <mxCell id="rvYTLIkTiq6AKJXwLt1Q-251" value="" style="endArrow=diamondThin;endFill=1;endSize=24;html=1;rounded=0;shadow=0;fontFamily=Verdana;fontSize=12;fontColor=#191919;targetPerimeterSpacing=1;strokeColor=#000000;strokeWidth=1;jumpSize=8;dashed=1;entryX=1;entryY=0.5;entryDx=0;entryDy=0;exitX=0.998;exitY=0.559;exitDx=0;exitDy=0;exitPerimeter=0;" edge="1" parent="1" source="rvYTLIkTiq6AKJXwLt1Q-254" target="rvYTLIkTiq6AKJXwLt1Q-239">
          <mxGeometry width="160" relative="1" as="geometry">
            <mxPoint x="1067" y="1760" as="sourcePoint" />
            <mxPoint x="1100" y="1727.0040000000001" as="targetPoint" />
            <Array as="points">
              <mxPoint x="1155" y="1764" />
              <mxPoint x="1155" y="1595" />
            </Array>
          </mxGeometry>
        </mxCell>
        <mxCell id="rvYTLIkTiq6AKJXwLt1Q-252" value="" style="line;strokeWidth=1;fillColor=none;align=left;verticalAlign=middle;spacingTop=-1;spacingLeft=3;spacingRight=3;rotatable=0;labelPosition=right;points=[];portConstraint=eastwest;fontFamily=Verdana;fontSize=13;fontColor=#191919;opacity=60;" vertex="1" parent="1">
          <mxGeometry x="715" y="1606" width="352" height="8" as="geometry" />
        </mxCell>
        <mxCell id="rvYTLIkTiq6AKJXwLt1Q-254" value="" style="line;strokeWidth=1;fillColor=none;align=left;verticalAlign=middle;spacingTop=-1;spacingLeft=3;spacingRight=3;rotatable=0;labelPosition=right;points=[];portConstraint=eastwest;fontFamily=Verdana;fontSize=13;fontColor=#191919;opacity=60;" vertex="1" parent="1">
          <mxGeometry x="710" y="1760" width="357" height="8" as="geometry" />
        </mxCell>
        <mxCell id="rvYTLIkTiq6AKJXwLt1Q-256" value="Visao" style="shape=folder;fontStyle=1;spacingTop=10;tabWidth=40;tabHeight=14;tabPosition=left;html=1;fontFamily=Verdana;fontSize=14;fontColor=#191919;" vertex="1" parent="1">
          <mxGeometry x="121" y="1768" width="77" height="55" as="geometry" />
        </mxCell>
        <mxCell id="rvYTLIkTiq6AKJXwLt1Q-261" value="&lt;p style=&quot;margin: 4px 0px 0px; text-align: center; font-size: 13px;&quot;&gt;&lt;b&gt;PetForm&lt;/b&gt;&lt;/p&gt;" style="verticalAlign=top;align=left;overflow=fill;fontSize=12;fontFamily=Helvetica;html=1;fontColor=#191919;" vertex="1" parent="1">
          <mxGeometry x="147" y="1848" width="543" height="509" as="geometry" />
        </mxCell>
        <mxCell id="rvYTLIkTiq6AKJXwLt1Q-262" value="" style="line;strokeWidth=1;fillColor=none;align=left;verticalAlign=middle;spacingTop=-1;spacingLeft=3;spacingRight=3;rotatable=0;labelPosition=right;points=[];portConstraint=eastwest;fontFamily=Verdana;fontSize=13;fontColor=#191919;opacity=80;strokeColor=#000000;" vertex="1" parent="1">
          <mxGeometry x="151" y="1895" width="539" height="8" as="geometry" />
        </mxCell>
        <mxCell id="rvYTLIkTiq6AKJXwLt1Q-263" value="" style="shape=partialRectangle;whiteSpace=wrap;html=1;bottom=0;right=0;fillColor=none;fontFamily=Verdana;fontSize=14;fontColor=#191919;verticalAlign=middle;spacingLeft=0;rotation=0;labelPosition=center;verticalLabelPosition=middle;align=center;flipH=1;" vertex="1" parent="1">
          <mxGeometry x="198" y="1804" width="176" height="44" as="geometry" />
        </mxCell>
        <mxCell id="rvYTLIkTiq6AKJXwLt1Q-264" value="" style="shape=image;imageAspect=0;aspect=fixed;verticalLabelPosition=bottom;verticalAlign=top;fontFamily=Verdana;fontSize=12;fontColor=#191919;strokeColor=#000000;fillColor=#020203;opacity=80;image=data:image/png,iVBORw0KGgoAAAANSUhEUgAAAyEAAAJaCAYAAAA4fEhFAAAAAXNSR0IArs4c6QAAAARnQU1BAACxjwv8YQUAAAAJcEhZcwAADsMAAA7DAcdvqGQAAH3qSURBVHhe7b3/t21ZVdjpH5Bf08OMdOxBvnRsLYGbShijO0OxexhNTEyhWMBL2pARW20LFVEsSMltE6sDAYIoYklBipsGY9pQjlZ5BBoU6gooEaIWNg10Qz2NZkgH6yGF8kVidu+59re51pprnX3WPefsvdf7fMb4jHf32Xutfe6ee8215jn3nfMFt912WyN+6Zd+KZ7Q2277iublv/X05vl3LH/tu+fyzOZtnqd5bs9/9/xzHuua7fMc8LiWxPirX/b0VcXt2Q/eaH77we8y9yGWeMfL39n89nv+mbkPEXELDvXGl33ZlzWPf/zjnV/wlvuf0iAiIiIiIh5bKUCe8IQnNF/w++/59gYREREREdfnLz/lKZvT+j1EKUKGd0MoQhARERERV6q1yF+71u8hShEif5ZFEYKIiIiIuGKtRf7atX4PkSIEEREREXEDWov8tWv9HqIUIfIf1eVPsihCEBERERFXqrXIX7vW7yFShCAiIiIibkBrkb92rd9D3LsIees/f2rzhjf/YvPQr36kecf7/h/Pt77nA807f/2R5h3/zn9cjv2pN72jeeCFX2f2iYiIiIhYq1/8xV88S6ut1lrkr13r9xD3LkJ+8vo7msce+1zz2U//cet/cn7uM3/cfPL3P908/3nPb37x8t3Nf/7jxtsv/uEf/FHz9rYYsfpERERERKxVq+CwtNpqrUV+qQNzHy/V+j3EvYuQt/zyB5pP/8Hnm8c++bnRP/zD/9R8+EM3mic96UnN3/jrf6P5uZ/9N81nPv2fXbEyHtO2efO7/y+zT0RERETEWp1TYJy6CBEHUtuH0Po9xL2LkJ976NeaT7XFxe9/4jO9n3YFx4Nv+Jnmi/7sn21u/6t/tfnKr/7q5s1v/oW2OPnj5hPtfjlO2khbq09ERNzPN36zvGr2l5tX/my87/0/8JebL/7mO6PHT6E7t3tF78nNG9vt7nl2P1vHH0I5x1N+4JnmPkTENbjWIkQMsY65itbvIe5dhDz4tl9xf3r1e4/+QfNo682bf9h84uanm7/7zH/Q/PU//+ea61/1Vc0L/4f/vvm6O57SPPLIf3BFiBwnbaSt1SciIu5nt7hv/Zqvbd4f7CsqQl71ZLOvvfzZr22ekiiMjilFCCKu3TUXIeKAte+qWr+HuP//Cfk3724e/b1PNb/3e3/QFhifbT75yT9q3nj9bc1/9Wf+TPNzj39803zd1zXN3/pbzTe1F/KlP3Jf81i7/+Mfb49tC5V/2ba1+kRExP3sFt5f23xvm2vDBfiyRchx3/WwpAhBxLXLOyGxexchFz/zDldQ/Lv3/Ubz0pe8rPm2b/m25tu+/a7mGd/wDc23f+EXNj//hCc07/6SL2kuvvmbm+tv/fnmgx/8zebNb3578/ZfeGfz+je+0+wTERH3c1x4S/EQLPytImT6M6letX98VyXc54oK9XimSEn1HxUI7vkOx/nvmoR9fO+r+n07ngdFCCKWqnOOpdWmxDl9zTnGWuRfxYHU9iG0fg9x7yLkNQ/+fPP61/1k870vvmju+Yl/27zgR17fvP71r29e/ZrXNP/ln/gTzZNbv7L13W97W/PJTz3W/NN/+s+aH/7hH2te8Yr7mn/xs5dmn4iIuJ964e2KCFVUhEVIt7jXhcozm1d+jd/Geifk/T/wZFUkGG1CjXdCvAIh/HOtV33t+HP0HNtjX9kXIbueB0UIIpaqCw5Lq02JVt+WVluttcgvdWDu46Vav4e4dxHywh//V81f/5qvaa496/ubn7381eaVP/6a5qf+1U82r/jRH22eeHbW/Bd/8k82f++Zz2w++7nPuV/gu7/7Oc1XfdVXN89/3j3Nj7zu58w+ERFxP3OLe78IubP5Xuv/aYQFw5w/x9p1zKwixN/fKc9RvfOxy+B5UIQg4q2itchfu9bvIe5dhDz3Rfc1X/nl/13z3z7hzzaP+6I/1TzrHzy1+T9++sHmp3/6p5sXv/jFzUtf+tLmox/9qCtAhNe97l82X/iFX9g87c6nN//01f/a7BMREfczXHi7wqNfmHtFiPvzp9TCX78rYRcY3TsU6pW6qxQhw7sYYcGRfI6TuedBEYKIt4rWIn/tWr+HuHcRcu99P9l80//4zObOO5/W3PvClzX/+Adf2LzhDW9o3va2tzXvfOc7mw9/+MPN5z//+b4EaZo3vektzQ/90I81P/H6f9288H6KEETEQxgvvLt3E+SxwxQhXX/eY4lCZXRnEaKPk2KiPzZbhOx+HhQhiHiraC3y1671e4h7FyE/8IrXN7/yK7/R/PK/fX/zwQ/9++YVP/rjzf33v6p58MEHXSHy8MO/3nzsYx9rPtf/OdbP/dz15lfe+4Hmox/93eYFP/y/mX0iIuJ+mgvvfjH/Sl2EuAV/wZ9jGQWFfrdleMxzbhHi7N4VcftSz1Gc8TwoQhDxVtFa5K9d6/cQ9y5C7n7Ja5qHLv9t88Brf7J54Yte3jzrO76red7z7m6e/exnu39f+MIXNhcXF8273vWu5uMf/3jz9nc81Lz7lx5uPvCB32ye99J/bvaJiIj7mVp4y+Puz5WC/7jtv9OgCoDhsfDdiLAwcNvBOxKhu4qQ9hzTn2F1z2HYjp5j25f7j+kznkfqWiAi1qa1yF+71u8h7l2E3PUDL29e9arXNt/73HuaO5/2d5sv//KvaL7xG5/a3H777c2XfMmXNE984lnzpCc9qfmO7/iO5h3veHvzr/73NzTvuHxv8/73f7R57otfbfaJiIj7mVx4D4t0VYSI4f+piNtO/19jaOu1kUV/+G5J6K4iZHhuveFz6AqRwanw2PU8KEIQ8VbRWuSvXev3EPcuQp7xnf+wLSre1/zSLz/cXP7i+5pXv/p1zfe1Bcn3fM/zmn/yT+TjeH+8+TvXvqn5iq94cvOt3/KtzT9/4PXNu97968273/P+5ul3PdfsExERERERbx33LkLu/8G/0TzrB1/ZPOsf/WjrK5rvvPfHmu/6X+9z/w5++w/8SHPt2f+oufNZL2j+5//lh5vv+Mc/2jzt257TvPD7/57ZJyIiIiIi3jruXYQgIiIiIiJeRYoQREREREQ8qRQhiIiIiIh4UilCEBERERHxpFKEICIiIiLiSaUIQURERETEk0oRgoiIiIiIJ3VWEfK+f30NERERERFxL63aQpxdhDTN+xAREREREWdJEYKIiIiIiCeVIgQREREREU8qRQgiIiIiIp5UihBERERERDypFCGIiIiIiHhSKUIQEREREfGkUoQgIiIiIuJJpQhBRERERMSTShGCiIiIiIgnlSKkQt/ya/8BERNaYwYRERFPK0VIhcpC6+bNm4gYSBGCiIi4DilCKpQiBNGWIgQREXEdUoRUKEUIoi1FCCIi4jqkCKlQihBEW4oQRETEdUgRUqEUIYi2FCGIiIjrcJ1FyOVdze23396cX7432nd5ftacnd3VXDbxPuykCEG0pQhBRERch5t7J4QiZLcUIYi2FCGIiIjrcBPvhNy4uMNtS/FxThGyU4oQRFuKEERExHW4/iLkxr3NtbOz5trF9XbfA815+zNFSF6KEERbihBERMR1uPoiRN4FOTu7o7m40RUd/DnWbilCEG0pQhAREdfh5oqQbpsiJCdFCKItRQgiIuI65J2QCqUIQbSlCEFERFyHqy9C+D8h+0sRgmhLEYKIiLgO11+EtNt8OtZ+UoQg2lKEICIirsN1FiF4JSlCEG0pQhAREdchRUiFUoQg2lKEICIirkOKkAqlCEG0pQhBRERchxQhFUoRgmhLEYKIiLgOKUIqVBZaiGhrjRlEREQ8rRQhiIiIiIh4UilCEBERERHxpFKEICIiIiLiSaUIQURERETEk0oRgoiIiIiIJ5UiBBERERERTypFCCIiIiIinlSKEEREREREPKkUIYiIiIiIeFIpQhARERER8aRShFToPS+5HxENb968aY4ZREREPK0UIRUqiy0A8OkKEMEeN4iIiHg6KUIqlCIEIGYaF/a4QURExNNJEVKhFCEAMRQhiIiI63GlRcj15uLaWXP77bebnl++12hzYG/c21w7u6O5uHHgc13e5X6HaxfX7f2DVzg/RQhADEUIIiLielx1EbJzob45u9/r2EUURQhADEUIIiLieqQIqVCKEIAYihBERMT1uN0ixPpzJf3Y8POl/Dv9aZf/LoT/Z19n5w/Yfc09Nncud4z/J2bj7+f23dVcXNzhHj9rf37oxg/OP38gRQhADEUIIiLieqy8CDlrzq7d29xoumNutIt8WeBfuu3uHNNi/oHmvD1+LBy8/sNjg+2d5wr6DvcP7a3CZs75AylCAGIoQhAREdfjqouQ4VV/rf/uwe4iJH43Qu8P2mv1/su7VEHR79eP7TzX9bE4sffvaL/r/MNjvRQhADEUIYiIiOux8ndCMvszi3jzWPUuR7R/17mGx9p+dEF1Nrf9rvMPj/VShADEUISsU4kLrkditH6tGCFuUYqQkxQh3Z9jjUXHvu0pQgCuzDQu/PGCyypx+fcf/4PFfP1b3rc6red5ClML3KVjhJOpGCFu0Vu3CMks4qNjXcESHKuLmF3nsooI3eec9uF+ff7hsd5psQUAA9O48McLLqvE5WOf+PRiyqLfenwpl3w+qQXu0jHCyVSMELforiLkL/2lv9T8lb/yV1ZYhPTvLkzHdG1mL+yH47P/2bzkWNkfPBYWEW7fAZ9r4LTYAoCBaVzEYwaXU+Ly6Kc+u5iy6LceX8oln09qgbt0jHAyFSPELbrhIqS1X8wP/8fi/FIKk7kLe3msO8/4fzT0ov5Kx8aPXZ6rtu5x9YlZV32ugdNiCwAGpnFhjxtcRonLpz7zR4spi37r8aVc8vmkFrhLxwgnUzFC3KIrLULwKk6LLQAYmMaFPW5wGSUun/v8f1pMWfRbjy/lks8ntcBdOkY4mYoR4halCKnQabEFAAPTuLDHDS7j0vlKFv3NjYtGv6vevWN9rbm40R+0L5fnro/zy357D9zzWYjUAnfRGB06NsLc+FwhjsciFSPELUoRUqFLT+oAa2QaF/a4wWWUuHzu83+8mLLo/+xHXts8o13oPuOBR8xjTmn3Toi979imFrhLxugYsfns21/giot73i7vLtjHrNVUjBC3KEVIhU6LLQAYmMaFPW5wGSUun/rM5xdTFv2PfeiB5mntQvdpr/5ItH/cd8/3u39l8SrHPfbpjzSvevpZc3bP27vj1PZjb/t+d9zz3yZ/x//55gOvfobbHhzO89in3948v+3z7OnPcH2fnT3DPZ/h3Kc2tcBdMkZzYjPEQK6zXMNXfai77sP+6Lqr+Aw/D/veco/E4fubt3x62ueOM2I1nOeUpmKEuEUpQip0WmwBwMA0Luxxg8socbn5qc8tpiz6H/3Aa5o724Xlna/6cLR/2Hf2tNc0Dz/24ea+p8kC9J7m+mOfbR5+lSx6u58ffeznm7vb4+5+S/vzW+5xi1f3s2v/jOa+D3zW9Xf9+VP7oc2wLfvl+ejzn9LUAnfJGOViI07Xs7+Wz/959/h4bYdtHRPj56F/Lz76OCNWS5iKEeIWpQip0GmxBQAD07iwxw0uo8TlY5/4zGLKov93H351843tAlMWnINnT3t1896bnx73feN9H3LH/8zd3UL0Z8Z9T29e8XD785vuaR+ffpY+nvsm+W6H7jzDY67v4bibb2ueKwvbu9/mPZ/h51ObWuAuGaNcbNz+/hp217WLi3vciMGg3jf8bMZXH2fEaglTMULcohQhFTottgBgYBoX9rjBZZS4/PuP/+FiyqL/t371/uap7QLzqa/8YLQ/3Pfg98ki9R82D/7HP2h+6z9+sHn5nd2+X3rl05uzO+9vfkkef+M/dIvX57yx/blvP7Tp2j+9efmvSvu3Ns+Rfd/31vF88nyGn09taoG7ZIxysRmUayrXWx8j8RhioI8Vvfj0P5vx1ccZsVrCVIwQtyhFSIVOiy0AGJjGhT1ucBklLh/92KcWUxb9H3nvq5pvaBeY3/CKD0T7w30/9VxZpD6/+anffcxt/+IrntacPfct7vHhmI/8zPPd4vXZP/NYt//sac0/e293vG7/kd99S/NsWdi27WWfKM9n+PnUpha4S8YoFxtv/zf611nHIGqj9g0/W/H1jjNitYSpGCFuUYqQCpUkdfPmTfcvIk522OMGl1Hi8qHf+eRiyqL/g+/58ebr2wXm1//wb0T7w30/8T2ySH1e8xO//fveflkAv/g9/WM//Ty3eP2un/795hd++Gnjzx/87Tc336WOHbe/583j+eT5DD+f2m6MrCtG2dj89m80L35qe/2e+uPNL3g/x9dW96Pj4z0+xqeLr3ecEaslTMUIcYtShFSoFCAAkMIeN7iMsqj6jd/6xGLKov/9776veUq7wJQFp/Y7H7w57nvKDz3sjn/dc2SRenfzut+86bbf/5sPNy9yi9/7mrcOjz1499S+3z/2+Ry9703Nd8rC9jlv8p7P8POpzRUh1vGnMBebt/5QV+DJz+7Y/roPsQrbDtdZx0e2JaZufxvX71Tx9eMYx2oJKUKwJilCEBFxMWVR9WuPPLqYsui3Hl/KJZ9PrgixjsfTSxGCNUkRgoiIiymLql/5f39vMWXRbz2+lEs+n1wRYh2Pp5ciBGuSIgQRERdTFlXv/tB/XExZ9FuPL+WSzydXhFjH4+mlCMGapAhBRMTFlEXV5Qc+tpiy6F+b1vM8hbkixDoeTy9FCNYkRQgiIi6mLKpwPRKj9WvFCHGLUoQgIiIiIuJJpQhBRERERMSTShGCiIiIiIgnlSIEERERERFPKkUIIiIiIiKe1F1FyJd+6Zc2X/ZlX0YRgoiIiIiIh5EiBBERERERTypFCCIiIiIinlSKEEREREREPKkUIYiIiIiIeFIpQir0npfcj4iGN2/eNMcMIiIinlaKkAqVxRYA+HQFiGCPG0RERDydFCEVShECEDONC3vcICIi4umkCKlQihCAGIoQRETE9bjSIuR6c3HtrLn99tsjz84fMI7f4Y0Hmssb77X3VShFCEAMRQgiIuJ6XHURcu3iuvn42bV7mxvNzKLixr3NtbM7mguKEIBbGooQRETE9bixIkR8oDk/O2vOLylCUlKEAMRQhCAiIq7HDRYh72tuXNzh/1mWKzT8P99ybYPHx/5Sxw/9bVyKEIAYihBERMT1uMkipLm8S/1JVvzOiCtSzu5qLmV/9E7IjuP7x7YsRQhADEUIIiLietxuETIWGdfj/x+iC4+wCNl1vH58o1KEAMRQhCAiIq7HCt4JmR7Tf151lipCdh2vj9moFCEAMRQhaxUAYCtYOQxL3WQRcnl+pv5PSPfnVV4RkXsnZNfx7phtSxECEEMRslYBALaClcOw1A0WIcH/6Ui8K5J8J2TX8cNjG5YiBCCGImStAgBsBSuHYakbK0K6x70iIiwgXNGh3+kwipbs8XKebUsRAhBDEbJWAQC2gpXDsNRVFyH6/2wMWu+OyJ9nDfu7YsIvPIb9w59w7Tp+61KEAMRQhKxVAICtYOUwLHWlRQheRYoQgBiKkLUKALAVrByGpVKEVChFCEAMRchaBQDYClYOw1IpQiqUIgQghiJkrQIAbAUrh2GpFCEVShECEEMRslYBALaClcOwVIqQCqUIAYihCFmrAABbwcphWCpFSIVShADEUISsVQCArWDlMCyVIqRCKUIAYihC1ioAwFawchiWShFSoRQhADEUIWsVAGArWDkMS6UIqVBZbN28edP9i4iTHfa4waUEANgKVg7DUilCKlQKEABIYY8bXEoAgK1g5TAslSIEEREXFABgK1g5DEulCEFExAUFANgKVg7DUilCEBFxQQEAtoKVw7BUihBERFxQAICtYOUwLJUiBBERFxQAYCtYOQxLpQhBRMQFBQDYClYOw1IpQhARcUEBALaClcOwVIoQRERcUACArWDlMCyVIgQRERcUAGArWDkMS6UIQUTEBQUA2ApWDsNSKUIQEXFBAQC2gpXDsFSKEEREXFAAgK1g5TAslSIEEREXFABgK1g5DEulCEFExAUFANgKVg7DUilCEBFxQQEAtoKVw7BUipAKvecl9yOi4c2bN80xg0sKALAVrByGpVKEVKgstgDApytABHvc4FICAGwFK4dhqRQhFUoRAhAzjQt73OBSAgBsBSuHYakUIRVKEQIQQxGyVgEAtoKVw7DUlRYh15uLa2fN7bffbnp2dldz2bzXaHdgbzzQXN44wXkOLEUIQAxFyFoFANgKVg7DUlddhFy7uG7sO5E37m2und3RXFCEAFQBRchaBQDYClYOw1IpQlJShABUBUXIWgUA2ApWDsNSN1yE2MfcuLhD/bmW/2dd3p9xDUXGpfw7HXN+2e53+6bHpnME/Z0/0D++LilCAGIoQtYqAMBWsHIYlrrpd0JcwXHt3ubG+P9DdLvuZ10oeMf3hYZu7xUw0TshYX9x/2uRIgQghiJkrQIAbAUrh2Gpqy5ChnccQsfiJCwU9PblXcZ/YH+gOW8LD/1uh/t52K/bh31b/ZnnWF6KEIAYipC1CgCwFawchqVu+p2Q8Dj9Tof8bBUwojs+LDLEXUWI965LcPzw2AqkCAGIoQhZqwAAW8HKYVjqxouQ1rE4SBckURuRIgTgloIiZK0CAGwFK4dhqdsvQtyfWLWFgPsP5upPo9yfSmUKhJIiJDzePcafYwFsAYqQtQoAsBWsHIalVlCEvK+5PO/+/4j/n8S7Prx3L3QhsasI0f9/RPfHf0wH2CQUIWsVAGArWDkMS111ERL+X45B6x0Jedz7T+ZGP167nUWIVdwE/a2wABEpQgBiKELWKgDAVrByGJa60iIEryJFCEAMRchaBQDYClYOw1IpQiqUIgQghiJkrQIAbAUrh2GpFCEVShECEEMRslYBALaClcOwVIqQCqUIAYihCFmrAABbwcphWCpFSIVShADEUISsVQCArWDlMCyVIqRCKUIAYihC1ioAwFawchiWShFSoRQhADEUIWsVAGArWDkMS6UIqVCKEIAYipC1CgCwFawchqVShFSoLLZu3rzp/kXEyQ573OBSAgBsBSuHYakUIRUqBQgApLDHDS4lAMBWsHIYlkoRgoiICwoAsBWsHIalUoQgIuKCAgBsBSuHYakUIYiIuKAAAFvBymFYKkUIIiIuKADAVrByGJZKEYKIiAsKALAVrByGpVKEICLiggIAbAUrh2GpFCGIiLigAABbwcphWCpFCCIiLigAwFawchiWShGCiIgLCgCwFawchqVShCAi4oICAGwFK4dhqRQhiIi4oAAAW8HKYVgqRQgiIi4oAMBWsHIYlkoRgoiICwoAsBWsHIalUoQgIuKCAgBsBSuHYakUIYiIuKAAAFvBymFYKkVIhd7zkvsR0fDmzZvmmMElBQDYClYOw1IpQipUFlsA4NMVIII9bnApAQC2gpXDsFSKkAqlCAGImcaFPW5wKQEAtoKVw7BUipAKpQgBiKEIWasAAFvBymFY6kqLkOvNxbWz5vbbb488O3/AOB61FCEAMRQhaxUAYCtYOQxLXXURcu3iuvn42bV7mxvNe4N9OEgRAhBDEbJWAQC2gpXDsNSNFSHiA8352VlzfkkRkpIiBCCGImStAgBsBSuHYakbLELe19y4uCP4syz/z7fOzu5qLvU7JTfuba61hYv+s66xiHH77mguLu6a2kfvtFyh/8T+1O92CClCAGIoQtYqAMBWsHIYlrrJIqS5vEsVCt2xuihxRcqwfygybsRFgSsU+p+nwiLs74r9G+/cuPZhIXNAKUIAYihC1ioAwFawchiWut0iZFjE65/HY9TC3xUEmQW/VzDox/rC4sr9X4///4ruXz9+IClCAGIoQtYqAMBWsHIYlrr5d0LkXQX9Z07aof3lufpTqvDTtcyCYCoyrtz/YPucddszihCAk0IRslYBALaClcOw1E0WIbLoHxb73p9GBcfFdsVFVwT0717MKEKu1H//mFd08E4IwMmhCFmrAABbwcphWOoGi5CpQHDb7s+l9l3Qqz5cQaD6E91jfRFx1f7Vuzbj/qI+50sRAhBDEbJWAQC2gpXDsNSNFSHd4/6i3nhML/Ldz8H/2dDvRPRFyHRM31/4H9NL+w8LjvF86rEDSxECEEMRslYBALaClcOw1FUXIfr/UAza7474x0cL/LYQ0H3ERUG7rT+iN/p/HVfov9X7PyNuX/BuzoGlCAGIoQhZqwAAW8HKYVjqSouQE6rftbD2b1CKEIAYipC1CgCwFawchqVShFCEANwSUISsVQCArWDlMCyVIoQiBOCWgCJkrQIAbAUrh2GpFCEVShECEEMRslYBALaClcOwVIqQCqUIAYihCFmrAABbwcphWCpFSIVShADEUISsVQCArWDlMCyVIqRCKUIAYihC1ioAwFawchiWShFSoRQhADEUIWsVAGArWDkMS6UIqVBZbN28edP9i4iTHfa4waUEANgKVg7DUilCKlQKEABIYY8bXEoAgK1g5TAslSIEEREXFABgK1g5DEulCEFExAUFANgKVg7DUilCEBFxQQEAtoKVw7BUihBERFxQAICtYOUwLJUiBBERFxQAYCtYOQxLpQhBRMQFBQDYClYOw1IpQhARcUEBALaClcOwVIoQRERcUACArWDlMCyVIgQRERcUAGArWDkMS6UIQUTEBQUA2ApWDsNSKUIQEXFBAQC2gpXDsFSKEEREXFAAgK1g5TAslSIEEREXFABgK1g5DEulCEFExAUFANgKVg7DUilCEBFxQQEAtoKVw7BUipAKvecl9yOi4c2bN80xg0sKALAVrByGpVKEVKgstgDApytABHvc4FICAGwFK4dhqRQhFUoRAhAzjQt73OBSAgBsBSuHYakUIRVKEQIQQxGyVgEAtoKVw7DUVRYhF9fOmrPzB8x9Ny7uSO7zvHFvc+3sjubixnvt/RVLEQIQQxGyVgEAtoKVw7DUVRYhrtA4u6u5bMIC4rorUM4vZxQWFCEAoKAIWasAAFvBymFY6iqLkGQB4R63ihNDihAAUFCErFUAgK1g5TAsdZ1FSOvl+Vlz7eK691j0p1iu0Dhrbr/99tGxTVSEdO+iDMfF/dzVXLT9u31zC52VShECEEMRslYBALaClcOw1NUWIc3lXc3ZtXubG2MxEP4p1gPNeVuA6D/N8v6MyytCurZT4RFs98XMrP9rsgEpQgBiKELWKgDAVrByGJa63iLEFRnqnYz+3YrxHYob11WB0qsLD/2zFDThuxv6sb4ImfV/TTYgRQhADEXIWgUA2ApWDsNSV1yE+H+SlfxUrLaYGP7EqvtTqkQR4r2r0poqWHTfG5UiBCCGImStAgBsBSuHYamrLkKm4sH6VKzuz7HGokMeSxUWFCEAtzwUIWsVAGArWDkMS113ETL8SdalFAnGn1OFhYU8lipCwiLDPWb9/5F+/4alCAGIoQhZqwAAW8HKYVjqyouQ/k+yrhl/ihUWFq6QUO+MeIXFnP+YThECUDMUIWsVAGArWDkMS119ESLFhvxfD+s/jUuB4v9fEPWJWVFh0RUe4/G6qKEIAageipC1CgCwFawchqWuvwjBvaUIAYihCFmrAABbwcphWCpFSIVShADEUISsVQCArWDlMCyVIqRCKUIAYihC1ioAwFawchiWShFSoRQhADEUIWsVAGArWDkMS6UIqVCKEIAYipC1CgCwFawchqVShFQoRQhADEXIWgUA2ApWDsNSKUIqlCIEIIYiZK0CAGwFK4dhqRQhFUoRAhBDEbJWAQC2gpXDsFSKkAqVxdbNmzfdv4g42WGPG1xKAICtYOUwLJUipEKlAAGAFPa4waUEANgKVg7DUilCEBFxQQEAtoKVw7BUihBERFxQAICtYOUwLJUiBBERFxQAYCtYOQxLpQhBRMQFBQDYClYOw1IpQhARcUEBALaClcOwVIoQRERcUACArWDlMCyVIgQRERcUAGArWDkMS6UIQUTEBQUA2ApWDsNSKUIQEXFBAQC2gpXDsFSKEEREXFAAgK1g5TAslSIEEREXFABgK1g5DEulCEFExAUFANgKVg7DUilCEBFxQQEAtoKVw7BUihBERFxQAICtYOUwLJUiBBERFxQAYCtYOQxLpQhBRMQFBQDYClYOw1IpQhARcUEBALaClcOwVIoQRERcUACArWDlMCyVIgQRERcUAGArWDkMS6UIQUTEBQUA2ApWDsNSKUIQEXFBAQC2gpXDsFSKEEREXFAAgK1g5TAslSIEEREXFABgK1g5DEulCEFExAUFANgKVg7DUilCEBFxQQEAtoKVw7BUihBERFxQAICtYOUwLJUiBBERFxQAYCtYOQxLpQhBRMQFBQDYClYOw1IpQhARcUEBALaClcOwVIoQRERcUACArWDlMCyVIgQRERcUAGArWDkMS6UIQUTEBQUA2ApWDsNSKUIQEXFBAQC2gpXDsFSKEEREXFAAgK1g5TAslSIEEREXFABgK1g5DEulCEFExAUFANgKVg7DUilCEBFxQQEAtoKVw7BUihBERFxQAICtYOUwLJUiBBERFxQAYCtYOQxLpQhBRMQFBQDYClYOw1IpQhARcUEBALaClcOwVIoQRERcUACArWDlMCyVIgQRERcUAGArWDkMS6UIQUTEBQUA2ApWDsNSKUIQEXFBAQC2gpXDsFSKEEREXFAAgK1g5TAslSIEEREXFABgK1g5DEulCEFExAUFANgKVg7DUilCEBFxQQEAtoKVw7BUihBERFxQAICtYOUwLJUiBBERFxQAYCtYOQxLpQhBRMQFBQDYClYOw1IpQhARcUEBALaClcOwVIoQRERcUACArWDlMCyVIgQRERcUAGArWDkMS6UIQUTEBQUA2ApWDsNSKUIQEXFBAQC2gpXDsFSKEEREXFAAgK1g5TAslSIEEREXFABgK1g5DEulCEFExAUFANgKVg7DUilCEBFxQQEAtoKVw7BUihBERFxQAICtYOUwLJUiBBERFxQAYCtYOQxLpQhBRMQFBQDYClYOw1IpQhARcUEBALaClcOwVIoQREREREQ8qRQhiIiIiIh4UilCEBERERHxpFKEICIiIiLiSaUIQURERETEk0oRgoiIiIiIJ5UiBBERERERTypFCCIiIiIinlSKEEREREREPKkUIYiIiIiIeFIpQhARERER8aRShCAiIiIi4kmlCEFERERExJNKEYKIiIiIiCeVIgQREREREU8qRQgiIiIiIp5UihBERERERDypFCGIiIiIiHhSKUIQEREREfGkUoQgIiIiIuJJXWURcs9L7kdERERExAW8efOmuUY/pKstQqBeiG/dEN/6IcZ1Q3zrhxjXjcRXiohSp/vDXqcfylUXIdaFwe1LfOuW+NYvMa5b4lu/xLhuJb7W43Md7g9rjX5IKULw5BLfuiW+9UuM65b41i8xrluJr/X4XIf7w1qjH1KKEDy5xLduiW/9EuO6Jb71S4zrVuJrPT7X4f6w1uiHlCIETy7xrVviW7/EuG6Jb/0S47qV+FqPz3W4P6w1+iGlCMGTS3z399GH72vuPDtr7r7+qLl/TRLf+iXGdUt865cY163E13p8rsP9Ya3RDylFyEJ2i8q7m+uPxovKRx99uLnvzm0sOEtcKr7DQv7222/3vPO+h83jr2IuviVevzt/Pxz6fFexhvGbulfmjsk1xeMYbi3GqXiend3Z3PfwYWNUQ+zXGN+rjkn0LYlxam3iYnPnfc3DmXv+GOPiEGulWtdbEl/r8bkO94e1Rj+kFCErlCLkONawONiCNYxf61559NHrzd0z342q/V7bWoxPGY8aYr/G+F51TKJvaYwfvu/O6IU767HQY4wLipC0El/r8bkO94e1Rj+kFCELGQ7IIZm6V+fuvLu5myLk4OaSYBQPte1+vvO+5r67p1fhdGy82PWvrGbjG54n17frJ97XtevuE+nvjb/+Y7POdwprGL9h/LzH1St+Vnysa5+K41bdWoxT8Rz36Zi6RUk/jvcct2bsFxyLpa4xvqkYxvFLX+9Hr989xsuLp2tzd3Nfu5ju9vnvkJX06fa55+zfI8O+pS2NcW68jPuN3zmMX+qadv1Pc5u+nlG7YK0093pn+yiIdddmXfePxNd6fK7D/WGt0Q8pRchChgNS/txmeCVhuCn3ueG25FLxDa95bp/eHhKBjs9Zn4TDV1GGfb8eFAVhfMf22b4lcYXJ3X9O43nVvtz5ZPvY1jB+w+s5Pq5isjs+/c+Z43TfW3JrMc5dc3MR1Y8XPY7k1d6zu69Px6TGbXCuJcdiqWuMbyqG4fhKxswdN7WP97WL3iGGEqdEDPfrc73jvjTGufGS+53njovuuPSLsGG7Ya20z/VO9RHu2/L9I/G1Hp/rcH9Ya/RDShGykN7gDG7EcGFbm0vFd0huw6sK4jjggwHuxWePfYPeMVF8p+SS61v3N7Xr+8y0y51P93csaxi/qTiEE7C/Lx2f1HHhvq24tRh38fDHvhv//aJBJn+9SJCfw3GTi683/vTPQazDPtfqGuObGlN6TGZjlrn23T79avjV+wzV7az9p/YqMbbGS3iM6F2rmeMiFeewv247vVZKXe9cH/p5hMeG+7TdvnXdPxJf6/G5DveHtUY/pBQhC5matIb9UjlThBzWbHIL9uXiE+3rFzKp/qL2OkFl+h76knthXDSl+px5vqHPY1rD+LXi4B43Jo058UkdN+zbmluLcSqe3n43jsPFQ/CiRR/7aIyp7dTP7rgTj8VS1xjf8FqOj6sxmYvZ1Ee333s8Ma6nhen+fep+pnbx81/Kq8TY/c7BeNH7d+XEMJa5OVFr7RvipLdz1zvXR033j8TXenyuw/1hrdEPKUXIQuqB0N2k083VDUiKkENrJZ/UPi8+e+yz+ovjOyWsbN998hrug9x5555Pto9tDeM3vL7j4/rPBmbGJ3ec7ntLbi3Gu675uAi63h7nxdduE/aXj7067sRjsdQ1xjcVw3hMxsdYxu2muHiL4iv1ud5xf5UYd9en/V3kd+p/3+7x9O88d1zkrlPcblorzb3eu/uwzx269vtH4ms9Ptfh/rDW6IeUImQhwxtKqt3hLU25EaXqHW6+2lwqvruT25RE3N9m9seG7fS2TmB6X/gfxcP4jokm17e5z07U4XbqfLJ9bGsYv+H1dI/tmBRS8ckdN/S9NbcW4zAGljLmJe/qPy05xLhdciyWusb4WjEMx6SYjFlw7b19fT/jn+cGxxb1ad4j6xn3V42xjJe7777bGy+53zncN3dshYbthrVS7ty6vZjqw9o3K9YrvH8kvtbjcx3uD2uNfkgpQhYyusH6xax7yy34tIbaXCq+4TUPHRYh3ULkvjapdMfayUDHrktALnaJhOsfk+kr2NbPSd8X+z2n6fFTWMP47a7n9Db4YDgmk/Hpx/Nw7VPH6b625NZinIqnOMShO8af5K2xPR1rj78w9kuOxVLXGN+5YzIVM1EWg0M7Lw+7NrKo7sZp2K6kT3HN4/6qMbbGizh7zkqMi/C40Nxaae71zvVRy/0j8bUen+twf1hr9ENKEYInl/jWLfGtX2Jct7dafIdFZLigrlnG8OFc4/0j8bUen+twf1hr9ENKEYInl/jWLfGtX2Jct7dafClC8CpShJRLEYInl/jWLfGtX2Jct8S3folx3Up8rcfnOtwf1hr9kFKE4MklvnVLfOuXGNct8a1fYly3El/r8bkO94e1Rj+kqy1ChouAdUp865b41i8xrlviW7/EuG4lvqVK+w57nX4oV/1OCNQJ8a0b4ls/xLhuiG/9EOO6kfheJcZTW3udfigpQuDkEN+6Ib71Q4zrhvjWDzGuG4nvEGPrnY45dtjr9ENJEQInh/jWDfGtH2JcN8S3fohx3Uh8hxhbBcYup/vDXqcfyg0UIZfN+fAlL9cumhv9o7Bd4uQnMb7WXBQH90Zzce2sOb/sN2FR4vi23Lhorp2dt5FWuMemL2ry4ycxHe6JTA64PB/bn4X96z6y58r0n2uX7bNuxhgH12Dw7ErjOUU3zqX/Z7zsZe15w3jDofDju8HrvNXnfUJm52k17vLjOrdWYx13aiS+Q4ytImOX0/1hr9MP5cqLEH9xeePiWnN2K830lRIlv3YheX5+3lwrXrX49wksixXfbgLTk1tQeLrJL9huJ6tHcjkgmDCj/DD2kTtXLsfk2u14/pUzxjiIwVHR5zrleW9BFonvIeH+2Mm8PC0Pq7m1PcYuInJ5lHXcEkh8hxhbRcYup/vDXqcfypUXITLRqwFBYqkCP/lJgpLFWxtrndwk1u32RZsAJTGKft6Se2N4ZaUtYoYk59p121MyVcdy/xwdHV+ZwNyrZ5fB2JXJLJiIosnObeyRA8J9Qx/Zc2X6z7Xb9fwrZ4xxLh4tck2GFxemxUd3zS/a7W5MhsWbNV71Y9ea174rPK/VpsXKB+45d8eKt0rM9qGLr39NH9rnWrpjM/m7HT/D41683Dn3vTda1HN74hO/pfnW6JhEu1uYWXnaXbc51ys4zt0X+tqn9sGxkPgOMbaKDBkL1uOD0/1hr9MP5bqLkD6RTTlIbuYwKcHW0MlPx9hbxLlENS1gZNLSr8Doxc0wobm2fTs94dkLITgWXnwHdk48/tge74U9ckAYW+9+8lB97NF/+b768HL0zrjK/uHf4bF20TNcdxnbqo9wbI/H6XMF58230fdBEKedz//WxIzvPteyP9bO3/pekEP1uL3KvaGem34uLbodc0DHrDwt2+01HorJuCjs6Y+bdql7I7cPjobEd4hxWGBILAfDfYPT/WGv0w/luosQL3EJ3Lw1oJOfTAjepDJMDlYyHLf9SazdOb3dG7Zzx+p7JmwLh0bHdySKi6aL33gfuO0+ZnNygOu7fyVvfFz14RGca3aOCZ+jJrevTsYY99deT2qivqYyxuWx6frINdaLWR2rcHyqeOh7yLufZrYxCduC4MfXuuYW6lqGx0bxssaYIPuueG8I2fOF/dyazMrTbjso7rx82ZPLo6zjFkHiO8RYFxdhrhb1/sHp/rDX6YeSd0Lg5Ew3d7d404NhfNXLTIaJfS3jq97RPrlnwnNwDx2TKb4KI2YdXXy8BbwcO4x7/bMjlwPUvqidsONcDqt/o91Ibl+9eDnajKvCHaOvaXyN0+NXLUL1vtTPjkQbhZwvyjkwYsZ3n2sZHmtud+38fHyAe0PwtrsxOjzH+Jy3JrPytGzPyb+54+b2AQdF4jvEeCgs9BgI1QWION0f9jr9UK67CHE3ayqxwFYZ4xslpzbiqQnH2w7uCzcZ5YoQ7plTMo1fhTV23WN93DT6HbEwflY/ivH+8fpoSZ1rV//Jdi25fZXjjeFMPAQXk/MwpnoRohaTYTz0sfpc3nlntnHIPhWzGc//VsSM7z7XMjw2d529V8pV7BwF94bgbYftQJiXp9trN6uACK5x7vrn7gU4GBLfIcZhgTHH6f6w1+mHcuVFSLe4HF5l5G8562CIr8QzCueweMxOKnKYevW5bSOVvOvLSHDhsf5bw3BopvGrMONpL+DHQsKRyQFRLKcJ0usjc65s/7l22T7rZ4xxGNcQ2e9iFC4mz5JxTI5Xfa7gvLPaCOa2tai6tTHju8+1zB0bjltv+wD3hhBsJ9vdwszK0y1RLjWvXW6txjpuCSS+Q4ytImOX0/1hr9MP5cqLEKFLSrLIJHHUQRdfSUx+suvoFpLRp99EybFLbN19EXw6VpBEvXuIBcfR8cdvTxAXmYgkHqEveEgvVgfSOUD3M8XW7yN1rmketPvPtdvdZ92MMXZx7a5daBdLtYDpF3/DRyafn3fXMB6TerwmckA0zme06fHuGZ07YGQaw10M5Zo+tM+1DI8NtmVhO7bz+jzAveGYnnf3mG4X9nlrMidPd8y95uq4aK2W2wfHQOI7xNgqMnY53R/2Ov1QbqAIgdogvnVDfOvnajGWBQkLwTWz3Bjm3jgVh4jx5XlYsMBakPgOMbaKjF1O94e9Tj+UFCFwcohv3RDf+rlajFlorp3lxjD3xqm4eoxvNBcXlCBrReI7xNgqMnY53R/2Ov1QUoTAySG+dUN864cY1w3xrR9iXDcS3yHGVpGxy+n+sNfph3K1RQgiIiIiIu7vN//gO4qV9h32Ov1Q8k4InBziWzfEt36Icd0Q3/ohxnUj8ZVi4i2/9h+KnO4Pe51+KClC4OQQ37ohvvVDjOuG+NYPMa4bie9QhHz0Y59qPvaJTzef+swfuX2f+szn2+3PuMc/+DufbN7/m59o/t1HH21++cMfb37x//7/ml94/++q+8Nepx9KihA4OcS3bohv/RDjuiG+9UOM60biSxFSqDk4zM+vhi0Sx/eqn4gSfB8BLMrs8ese6z47XvTjJzEd7gm5PxKfMX/ZfVGl2xflB9VH9lyZ/nPtsn3WzRjj4BoMHue7GLpxLv0/42Uva8/LfHAsZuVoF3tisFW8GGfzaCY/euSOm9sHHAqJL0VIoVEC7AdIPDhgi1jxPT8/n77Rdm8oQtbEvPEbLGrcgibYbierR4LYypej+d9oPvXp7RPGPnLnyvSfbbfj+VfOGOMgBkdFn+uU570FmZWjicGmSY1hPwfm8qMmd9zcPuCQSHwpQgrVCVC+WdW9qnZJwqsFf4KTBCWLt3ZRp18hkcTYbl+ob9b185YsAodXVoJv6u23p0WvOpZ76OjMGr/toiaciOTY8aFxv8ROtcstfMJ9Qx/Zc2X6z7Xb9fwrZ4xxLh4tck2Gheu0+Oiu+UW73Y3JsHizxqt+7Frz2neF57XatFj5wD3n7ljxVonZPszO0eO17o+5mF5Rd3Fvx4m3PZKIl8OP9dQs1wb2xY+xwourXHN1rZPjPXfc3D7gkEh8KUIKNQcHN241ePGVuPYTm7eIc/GeFjBu0acmQL24GSY617ZvpxcW9kIIjkXZ+JWJalpwjPeCuj86/OM0YWy9+8lD9bFH/+X76mOM8ay4yv7h3+GxtigYrruMbdVHOLbH4/S5gvPm2+j7IIjTzud/azI/Rw/Xrnu1exx//XX3t2fEq+9nPIfal24DJZh5usXLoyr2HYk8lztubh9wUCS+FCGFmoMjSGKwXXR8JeF5E0ti0vK3JYnpe0FNXNF9Eia8sC0cmv3Hbxe/8T5w233MosWGMYG5vvt3XMbHVR8ewbnm9O8In6Mmt69Oxhj3115eBNDqaypjXB6bro9cY10Y6FiF41PFQ99D3v00s41J2BaE/XN0ON7CbRWT6JrPiVemDRQR5Wl37YM8Ojc/5o6bnWPhkEh8KUIKjQaHsHMyga0wxbdbvHmLlyHGYbz1tnEvjK/QRfsk4YXnIAEek/3GbxcfbwEvxw6Tlv7ZkZvA1L6onbDjXA6rf6PdSG5fvYwxTsZV4Y7R1zS+xunxqxazel/qZ0eijULOF+UcGNk/R4dFR7itYr4rXtG4bcm1gSLMPO0IYjUn/+aOm9sHHBSJL0VIoebgiJIQbJUxvlFyatNTajHibUsSCyekXBHCfXNKZo9f95h+RbxHv9oaxs/qRzHeP14fLalz7eo/2a4lt69yvDGciYfgYnIexlQvQvSCMhyv6lh9Lu+8M9s4ZJ+K2Yznfyuyf44Oi4JwW8XE/Tw3XgOZNlCEmad7xhiH131ufLzj5vYBh0TiSxFSqDk4uHGrYYivvM0fLeCGxWMY72BbkqT+EwF5hS6eGDvCY/23huHQzBq/bttewE8ToNAVmEP8vL9XjmI5LUy8PjLnyvafa5fts37GGIdxDZH9LkZhoaH+v0AQx+R41ecKzjurjWBus5gN2T9H71OEZOLl2oVjtztHug2UMI7h6FrqWGXyo0fuuLl9wCGR+FKEFDr98opw8oDN0sVXEpMVzy4BRp9+E8W/S2zuzwPCT8eK7pNu0dP9KQELjmMzZ/zKRDT8eYf2BQ9JXMMYqfgFCw/dzxRbv4/UuaZ50O4/1253n3UzxtjF1f9zncEulmpB2S92ho9MPj/vrmE8JvV4TeSAaJzPaNPj3TM6d8DI/jk6HLfhdtfG3zbi5dD75raBfdF52s6jA+q66/ybG4NBns7vg2Mg8aUIKVQPDqgP4ls3xLd+rhZjWZCECx1YE4zh+jlEjC/PKQbXisSXIqRQEmDdEN+6Ib71c7UYU4SsHcZw/Vw9xjeaiwtKkLUi8aUIKZQEWDfEt26Ib/0Q47ohvvVDjOtG4ksRUqj88oiIiIiIuL8UIYVOvzzUCPGtG+JbP8S4bohv/RDjupH4UoQUyuCoG+JbN8S3fohx3RDf+iHGdSPxpQgplMFRN8S3bohv/RDjuiG+9UOM60biSxFSqDc4gs+h5/Pct0+c/K76aTnB9xHAopiTm/F9Dfmxrb9nIPMZ85fdF1W6fdF3B6g+sufK9J9rdwvnpjHGwTUYPM738XTjXPp/xste1p6Xjwc9FuYY3gd3XxwiPuT2Y6FjHH7vkZ9LM/nRI3fc3D7gUEh8KUIKnX55uXHVZOYS2zEmNzgl0QTXLiTPz8+nb8PdGyaqNWHF157YMmNbttvJ6pEgtjJZjt+2Gyx0vH3C2EfuXJn+s+1u7dw0xjiIwVHR5zrleW9BojG8LweLD7n9WOgYy7fR29c4lx81uePm9gGHROJLEVLo+MvLN+wGN2t6sMBW8Cc4SVCyeGsXdfoVEpnE2u2LNt6ygBX9uMsicHhlJfjG9H57WvSqY1m4HJ1wcnOvil8Gi5JdY3vcL7FT7XKLm3Df0Ef2XJn+c+12Pf/KGWOci0eLXJPhxYVp8dFd84t2uxuTYfFmjVf9WPht3YLVpsXKB+45d8eKt0rM9sHP0blra+Vo//iH9o6Baq9zu0DsDsYU42EO7jc9JBZBzPX2SO64uX3AIZH4UoQU6idAjdzMqcECW8GLrySkvvjwFnH9ZDO+OyKLPlWk6MWN7BsnpL6dnpzshRAcC3P87px4/LE93gvq/uhI54Awtt795KH62KP/8n31McZ4Vlxl//Dv8Fi7IB2uu4xt1Uc4tsfj9LmC8+bb6PsgiNPO539rosdwMn/213ZerObHIIzlVGwQu0Myxbgbj0Nh5xV3co3n5MfccXP7gIMi8aUIKVQnwInuLb0xOcFm0fGVSc2bxLwJTk0w3rYkMT35qLd7w3buWJ3wwrZwaMzxG8VFE45t9cqcXtg4jAnM9d2/4zI+nnp1LzjXnP4d4XPU5PbVyRjj/trrBYyor6mMcXlsuj5yjfWiVMcqHJ8qHvoe8u6nmW1MwrYgTGNYXUuHul7htU3FZ68YhPHoxtZ0r2iI3VXwx7COsRqPc/Nj7rjZORYOicSXIqTQ6ZcfkJuWAqQWpvh2E4y3eElNXDsmtfFV72hfd+/45yABHpN4/LYYMeswxrYcO0xa+mdHbgJT+6J2wo5zOaz+jXYjuX31MsY4GVeFO0Zf0/gap8evWhDpfamfHYk2CjlflHNgZBrD3f1t5s/w2s6OT4cZA+PY8d7oIXaHwczTPd54nJN/c8fN7QMOisSXIqRQb3C4pJR6JQS2yBjfKDkFyU9PMN62JDE9+ahXy8J20bFwbMzJLYpLi3vMGNvyytn4YBA/qx/FeP94fbSkzrWr/2S7lty+yvHGcCYegovJeRhTvQhRRUMYD32sPpd33pltHLJPxWzG878VmcZweG0V4bVLxWevGITnU7k92w72xczTPWMeDeORvOa54+b2AYdE4ksRUqg/wamkA1UwxFf+TCOK7bB4DBNVsC1Jcnz1uW0jr4q5vowEFx7rvzUMh8ac3Mx42mN7mgCFbhEyxM/7m/QoljLZdYtPr4/MubL959pl+6wfP0dnFhSy38UoLDTOknFMjld9ruC8s9oI5vbwvGBAj+Gia5v6WTC3pxiE50vm9qAd7McY42D8tRe2HavDdc7kR4/ccXP7gEMi8aUIKXT45eVmHd521XL/bpsuvjrRabqFZPTpN+EE1Cc2uR+iT8fyjhO6RY87lknr6EzJSxHEJTW2X/CQxDWMkYqfN1n6/Uyx9fvYnUfs/nPtbvXcNMbYxXX68xhtF0tVqPWLneEjk8/Pu2sYj0k9XhM5IBrnM9r0ePdM+OlL4PDHsL62KlbhtfW2u9hLLB7aOwaJ3C57iN3B0DH2rmtuPOr8mxuDQZ7O74NjIPGlCCnUT4BQG8S3bohv/VwtxrIgCRc6sCYYw/VziBhfnvvFJawHiS9FSKEkwLohvnVDfOvnajGmCFk7jOH6uXqMbzQXF5Qga0XiSxFSKAmwbohv3RDf+iHGdUN864cY143ElyKkUPnlERERERFxfylCCp1+eagR4ls3xLd+iHHdEN/6IcZ1I/GlCCmUwVE3xLduiG/9EOO6Ib71Q4zrRuJLEVIog6NuiG/dEN/6IcZ1Q3zrhxjXjcSXIqRQb3D0X1bUfX41HwdXA3Hyu+qn5QTfRwCLYk5uxncFdI91nx0v+vGTmA73ROYz5rP5QfWRPVem/1y7bJ91M8Y4uAaDx/k+nun7I57xspe152U+OBZ+fI9/nb0vFz0lc3+/E12HUzI3T4ffiZReh2XyaHYfHAOJL0VIoakEKIOBb9rcPlHyaxeS5+fn07fk7g1FyJqw4htPXkHh6cZ6sN1OVo8EsfVywK78MPaRO1em/2y7Hc+/clI5+qjoc53yvLcgp47vYkXIXCq83+bl6bmxyeXR3D44FhJfipBCo8ExwMRTBX58JUHJ4q1d1OlXSCTW7fZFmwAlMYp+3pJF4PDKivrmXNeu256SqTqW++fo6PjKBOZeFb8Mxm474YUTkTfZjfsldqpdLgeE+4Y+sufK9J9rt+v5V84Y41w8WuSaDC8uTIuP7ppftNvdmAyLN2u86seuNa99V3heq02LlQ/cc+6OFW+VmO3D3Pgmr/uQ1y+mdyrdfdCOG2+7x42d82nfGJN94ueOnTlnDPec/v1y7fvjzlN9p56ToH5n/xoty6w8Pc7P/WYSubaqnb6u2X1wLCS+FCGF6sGhoYKuAy++feKXHOct4vqkPk5UsuhTRYpe3AxJ3rXt2+nbxF4IwbEwx+/OiUcmqmmyG+8FdX90+Mdpwth695OH6mOP/sv31ccY41lxlf3Dv8Nj7aJnuO4ytlUf4dgej9PnCs6bb6PvgyBOO5//rcnc+KZza/fq97jdx8Hf9uOXjvPM+PXHmvdB/3zGfvp9j8xtn+07d0/p+152rWf+mZenu7E6FFHjPBsi7cbrIahrktsHR0PiSxFSaDQ4+gQQv2IGW0THV5Kyl9gTk5S/7Sf2duc0wYTt3LH6vgnbwqGZN7lpuviN94Hb7mPmTfaCMYGZ+UH14RGca07/jvA5anL76mSMcX/t9SJF1NdUxrg8Nl0fucZ6YaljFY5PFQ99D3n308w2JmFbEPz4pq6Pus4OfS3D8Rdu+23DFwzG7X3iFx6rt1P95I6Zuy9CX4fwGq2HWXnabefi2JPLo7NzLBwSiS9FSKHm4HBw89bAFN9u8eYtXuYkfWMCSE9acs+E5+AeOiazJreRLj7eAl6OHSYt/bMjlwPUvqidsONcDqt/o91Ibl+9jDFOxlXhjtHXNL7G6fGrFj16X+pnR6KNQs4X5RwYmRff7t63c2u4WA23/Xvg8lzvy90PHWb8wmP1tvwc5YOW8Jhc+9S+nuQ95Y7t9q1p7tkvT0+MsdFIu1Qeze2DoyHxpQgp1BwcPeYAgE3hTXDBxJCcfLxtSWI6UXbFjD1phcfCsZk9ubnHjPGs3xEL42f1oxjvH6+PltS5dvWfbNeS21c53hjOxENwMTkPY6oXIXqBGo5Xdaw+l3femW0csk/FbMbzvxWZF9/wumv2LUL0ONqVzxPxC4/N7Rsobe9t73FPRe8KLMfsPB1gr8GCeyG6Pql9cCwkvhQhhY6/PG/jVckQX/kzjSiZDYvHMFEF25IIx1ef2zbyKpPry0hw4bFrmQRqZdbk5ratyayL1/R4tyAZ4uf9TXUmP3h9ZM6V7T/XLttn/YwxDuMaIvtdjPQitFu0peKYHK/6XMF5Z7URzG3mlJC58U3n1rDoCLf9uVz68cedHeds/LLHduN8HK/9vof0Mbn2e+/rn1OYo8LtBZmVp6PnK9dR7R/prq+ZR7P74FhIfClCCtWDQ27Y6S1OncRgq3TxTSWzbnKKPv0mTI59YnP3Rf/pKS6vRccJ3aKHe+g0zJnc9LjWvuAhiWsYIxW/YAK384PfR+pc0zxo959rt7vPuhlj7OLaXbvQLpZq4dcvaIaPTD4/765hPCb1eE3kgGicz2jT490zOnfAyK74TotIfd11HMNxHG5398Cw7V406D8dy+tnn/iFx2bvkf4c+phc+x195+4p+d3GfbqPhZmTpwXvd8vGRl3fqNDK7YNjIPGlCCnUHBxQDcS3bohv/Vwtxv4CFNYHY7h+DhHjy7ZwXEtRBT4SX4qQQkmAdUN864b41s/VYkwRsnYYw/Vz9RjfaC4uKEHWisSXIqRQEmDdEN+6Ib71Q4zrhvjWDzGuG4kvRUih8ssjIiIiIuL+UoQUOv3yUCPEt26Ib/0Q47ohvvVDjOtG4ksRUiiDo26Ib90Q3/ohxnVDfOuHGNeNxJcipFAGR90Q37ohvvVDjOuG+NYPMa4biS9FSKH24Ag+cx42SxTfy+7z4cfPItefI258bjmsG3P87vj8eRd3b7/+XoE5nzFv5QfVhzv/9Hn9/nGZ/nPtsn3WzV5jeCBzjNwLYZvxi/CC6zw4fkkeHJwxvolrH3+3i4Fre4jczdx/DObm6Xz+nZObhUP0Afsg8aUIKdQaHMOChUS0fXR83eIjSHru23NJRpslGr/94tOKc3I8y2TY3gOPtHeBXoC4+8VoZOaHsQ+Z5NSiyU20w3au/1y73L762XcMzznGux/62Ll97tpaC6Nb53qfmjG+5rWfyVXaelCEHIN5eTqXH+fl5sP0Afsi8aUIKTQaHG5C4ptta2GKb2ohoRKTnsjUfTAlSumjfxXlIBMeXBU9ft1CU2J8GS5IJMaZRWQ7IXaTkcRXtbMWNqn8MPQx9jUxLXgz/efaZfusn73G8KxjZFPiKIVHcG9YMQ/bwkEZ42tee0Ufs4v23pccPL0Q4Oflh9xxQe52fYftBlT7cGxn28Fc5uXpTH7M7tMcog/YF4kvRUihenC0d2U/ITHp1MIYX1nIqVdCTXRScj/794Akz/HPMub0B0fHH7890eQyLTKsxcS4oJd2XkylnV7QpvNDuihQfezsX1O6rz72GsN7jEt5JfT8/Nz/U6vo3mlxj9061/vUjPG1rr3G7U/kYN22P24aj8F4Cc4T5vUpP+TbwXxm5WnZTuXH3D7NIfqAvZH4UoQUqgeHTEpdMqIIqYUxvjJh7QqoTor6Z4ckrHCbBLY0syc3L1ZDMRH8HC1g/Rin84PuT9MdZy6aHKl7KGjnkdtXJ3uN4TnHDLj7Isjz/WO6YA2LVjgsY3wT194sNAS9nfrZROfyMK+HY1sTHgtzmZWnc/lxbu48RB+wNxJfipBCvQQ43qC5RARbwo5vgtxEFm67e4QEtjSzJjcD890P/bNDTVLeviA/RO0EaRsUC7n+R4x2I7l99bL3GN51jKMfv/InIfp4ab/j3oHD4sU3d+3D/Xo79bNCxvxY2GSODd/VNNvBXszK07Kdyo+5fZpD9AF7I/GlCCl0+OXlVc4h0WhvtQm/NqabO5Vw1IJSJ0X9s0Pah9sksKWZNbkZjAsN75XzIMaqn2x+8Ppoce38hUxHun9Hsl1Lbl/l7DWGZx3TomIm98KY58OYwNEZ47vr2pvjpd9O/eyQe0LF3tsfjMnoXkq1g32Yl6eDWOTilIzFIfqAfZH4UoQUag6OcMKCzaLjKwvJ8JUsWYCYb/cbCcpbrERv7cISzJrcoljJ+O72j8WIoxv3Q4zd/WImAT8/eH24c6dyR6b/XLtsn/Wz1xhu2X1MZjES3jtwdMb47rr24f5U3HLHCW57KlTDvC4vLrixtqMdzGdWns7m3/1y89X6gH2R+FKEFGoOjv5m5f7cPlF8+0lm0Fuc6qQYJUhBFi/dW/O8Lb8O5k1u3YQzxnxcSMg4DxcVKsbJIlPnB78PfR7tlEvs/nPtdvdZN3uN4YHkMf5CZMAtSNpjHjHHPRyTMb7u2k9/+qR193oYG2+7i6vk5Yd2jf/o0+26tta+fDuYy9w8nc+/iX1RPwV9wJWQ+FKEFGoODqgG4ls3xLd+iHHdEN/6OXaML8/DYgZOicSXIqRQEmDdEN+6Ib71Q4zrhvjWz3FjfKO5uKAEWRKJL0VIoSTAuiG+dUN864cY1w3xrR9iXDcSX4qQQuWXR0RERETE/aUIKXT65aFGiG/dEN/6IcZ1Q3zrhxjXjcSXIqRQBkfdEN+6Ib71Q4zrhvjWDzGuG4kvRUihDI66Ib51Q3zrhxjXDfGtH2JcNxJfipBC9eAIP4+f74LYPlHym/s9IbAJzMltx/cEuLh7+/V3fcz5HPnuewX87wtQfbjzd32I/nGZ/nPtsn3WzV5jeCBzzPCdILrN+IV1wXUeDL9XBA7HGF9j3K6GNT+3DTA3T09YOXbud3zwPSGnRuJLEVKoHhzeNx9DFej4usVHkPTCb1uGbRFNbv3i04pzcmzLZNjeA48EE5+7X4xGQ0Hj7Rr7kElOfQGim2iH7Vz/uXa5ffWz7xiec4x3P/Sxc/vctQ0XRsH1h4Myxte89ithzc9tA8zN0wNxjp2Xm/PHze0D9kXiSxFS6PTLyw3KRFMbU3xTCwmVmPRE4xYm3TfkTolS+uhfRWFCWgV6cnMLTYnxZbhg2DG22wmxm4wkvqqdtfBQ94U3fw19jH1NTAveTP+5dtk+62evMTzrGNmUOErhEdwbVszDtnBQuvj6ufUhNc7GXOti0x3jL1Bb2jEyPO7n5m7MXfSLWpcfvHvDP+/YTp3/iU/8luZbo2MS7cBkXp7uUdd+inEXRy8+5nXPHTe3D9gXiS9FSKH+BDclOJFJZ/uM8ZWFnHol1EQnJfezv/CQ5Dn+Wcac/uDo6MltJJpc8mN7XNBLOy+m0k4vWoYFa7woTRcFqo+d/WtK99XHXmN4j3Epr4Sen5/7f2oV3Tst7rFb53qfmjG++tq7n8NFqIqBFyfZN8XMf4Vb9ql3weT+UMcmc3p4fu98fjteUd/NvDwtJHKsHDsnd+aOm9sH7I3ElyKkUD8B6htyGAz9JmySMb4yweyaKHRS1D87/ImOBLYOZk1u2bGtfo4WsH6MZbHRLTyCCTKZK7rj0oVr6h4K2nnk9tXJXmN4zjED7r4Iisf+MV2whkUrHBZ/Dk7l3xCdj3O5WPalxqruQ1D9hOf3tsPzhf1AyKw83ZLMsXNzZ+642fkX9kXiSxFSqDk4etKvbsJW8CY4LwEZ6KSYnYQEPZnBUsyd3ELMdz/0zw41SXn7ggkyaidI26BYyPU/YrQbye2rl73H8K5jHP34lT8J0cdL+x33DhwWL76p/Nsj43YoDKM/n+qLR/9PruIx5o197xwqp4f7vO1uHA7PIz4nhMzK07I9jsVdOdbKnS254+b2AXsj8aUIKdQcHD0UIdtnim8q4ahkp5Oi/tkh7cNtEtjSzJrcDMax7b1yHsRY9SOv0OlFx6ArCMJX3107K3ek+3ck27Xk9lXOXmN41jEtKmZyL4yFXRgTODpjfPW1j+IgcVXxy8XJe8U7vB9UoeH2hefo94X9e9thO9jFnDydzbHhNU/GP3fc3D5gXyS+FCGFjr989FadJCtu0K2jk5/7290g6cgCZIy7TkpGgvIWK9H9AkswZ3LLjW3/hYZuoTrE2N0v006Fv6D1+nDn1n1qMv3n2mX7rJ+9xnDL7mMyi5Hw3oGjM8Y3Fwdzuy8YwvEdFSFt7IfBExybzOk7zp9sByaz8rSHn2OH7bm52T5ubh+wLxJfipBCwwluqL55e7UOouTXThj6VRZv8tBJ0UyQ3YTW3R+p5AmnZO7kZo9tmZTCca5inFxY6AnS70OfRzvNdXb/uXa7+6ybvcbwQPIYfyEyINdYjnkkuzCCYzDFt4uN5NaHdo3h4NOTpCgY93ntZLzJBxB0beN5PZHTo/NPz617TLcL+4SQuXl6QufYgURujvpJHOfI7YNSJL4UIYWagwOqgfjWDfGtH2JcN8eNryw6KRKW5thj+PI8VczAKZD4UoQUygRXN8S3bohv/RDjujlufClC1sBxY3yjubigBFkSiS9FSKFMcHVDfOuG+NYPMa4b4ls/xLhuJL4UIYXKL4+IiIiIiPtLEVLo9MtDjRDfuiG+9UOM64b41g8xrhuJL0VIoQyOuiG+dUN864cY1w3xrR9iXDcSX4qQQhkcdUN864b41g8xrhviWz/EuG4kvhQhhfqDo/tsaj77ux6i5Df3e0JgE5iT247vGHBx9/bLuB/G+5zPkbc+w1714c7f9SHO+qx7Idcu22fd7DWGBzLHDN8JotuMXz4XXOfB8HtF4HDEY9j4RCtjTMN28GJcmh89csfN7QMOhcSXIqRQPThkIhoHRDuJcQNvHx1ft/gIJjKJOXHeLt7kJvSLTyvOyYW7TIrtPfBIexfo4sLdL0ajoaDxdo19BAsoN+EO27n+c+1y++pn3zE85xjvfuhj5/a5axsudoPrDwfFGsPn5+d+4WfGBbbCFOPS/KjJHTe3DzgkEl+KkEL9wUGSq41k8htRSUtPdG5h0n0r77SgkT76V1i4V1bBFF9Zu0is2hhfhgsWiXFmESkvOLgbIMgB1sJH3Rfe3Db0MfY1MS14M/3n2mX7rJ+9xvCsY2RT4iiFR3BvWDEP28JB0WO4u9YSjzaOqmj049IfczG92+UKlnaceNsjck+k8rbep++bXBvYlzHGpfnRI3fc3D7gkEh8wyJEtndJEdI6/vJys7ZJ76IdEHFCgq3iJT89qVnohOV+9hcekizHyW1Of3B0puSliCaeaUExGMbVbfc5YIqptNN5YFggxYvSdFGg+tjZv6Z0X33sNYb3GJfyKumsV9zdY7fO9T413hhWY8QbU15cuvE3LmbdvnB7imE6bwfjWO0j1x8WM087CvJj7ri5fcBBkfhKUWG9E7ILipDhl+8TmZf0SDybZ4yvTCRjcBO4e0AXIeFCNtwmuS2NObmFsXPbOlZDMRH8HC02/BjLorVbmIRFiO5P0x2XXsyk7qGgnUduX53sNYbnHDPg7ougeOwf0wVrWLTCYdFjeBpjLTqW3pgOx1u4rcdVJm+HeWIk0waKMPN0mMvm5sfccXP7gIMi8Q2LEP2OR0reCWkdf3lJSNy81ZGOr4GelMIJKpqwwokPlsCc3KJYxZjvfuifHSoHePu6yXNcmEbtBGkbFAu5/keMdiO5ffWy9xjedYyjH7/yp3v6eGm/496BwzKN4W5c6eJv/FMoLy5h7g23g3GbytupeyXXBoqI83RpfmzJHTe3DzgoEl8pKngnpMDpl29vVm7e6vDia8azm/jGBak56QnSPtzm/liaeHJriWIXMxYh3ivnQYxVP/IKrV4cDbpJ1OujxbULXmF3pPt3JNu15PZVzl5jeNYxLSpm3p/ehDGBozPGV659UBR4LxaMcQmLgnBb3wPBmNP7krHOtIEivDydzGXBdZ8bH++4uX3AIZH4hkWIfscjJe+EtOrBMSY8QW7eICHC9tDxdZ+UESQkifn49q1OWEby8hYr0du+sATe5DYQxi6KlSxauv3emHePTzF290s8U7b4C9oobySLhUz/uXbZPutnrzHcsvuYzEIlvHfg6AzxlbhF9/hQLHpxCYuOcNsvGtJ52x/H+hzpNlDCOIazuSyTHz1yx83tAw6JxFeKCt4JKVBPcF3y4hMxasKPb0s7oehXsr3JZedihPtjbUTxFYzYyWQ0xnxcoISLF0HFOLnw0IsXvw99Hu00D9r959rt7rNu9hrDA8lj/EXKgFustMc8Yo57OCZdfCUu1nXvCorXvkvHJRy34XbXxt9O5W29b24b2JdhDJfmx7ZhMC4Txzly++AYSHxTRQgf0bvDaIKDqiC+dUN864cY1w3xrZ9DxPjynGJwrUh8KUIKJQHWDfGtG+JbP8S4bohv/Vw9xjeaiwtKkLUi8aUIKZQEWDfEt26Ib/0Q47ohvvVDjOtG4ksRUqj88oiIiIiIuL8UIYVOvzzUCPGtG+JbP8S4bohv/RDjupH4UoQUyuCoG+JbN8S3fohx3RDf+iHGdSPxpQgplMFRN8S3bohv/RDjuiG+9UOM60biSxFS6PDL3+qfxV8rUfKb+z0hsAnMyW3H94S4uHv79fcMzPmMeTk+/MIt1Yc7f9eH6B+X6T/XLttn3ew1hgcyxwzfCaLbjF9OF1znwfB7ReBwTPENv++jAGPsw/J4Y1iNzfA7WPJ5WsP3hKwJiS9FSKHRBDfQDhRu4O2j4+sWH0FSC79tGbZFNH77Cc6Kc3LhLguX9h54xC2CpuPc/WI0GibKqEhwfcgEqBZSblE0bOf6z7XL7auffcfwnGO8+6GPndvnrm248AmuPxyU5Bxcghk/WJoxxkF8whybzdMjuTw6L4fDYZH4UoQUaidAJp1amOKbiqlKWjpBuoXJeXPe7psWNNJH/woLE90q0OPXLTQlxpfhQkRinBnP8oKDuwEkvqqdtaBR94U3tw19jH1NTBNrpv9cu2yf9bPXGJ51TIuLoxQewb1hxTxsCwdliq8VC+Pdvz52F+0Y8PcZ+TnbR5jf4VjY66wWb7wF8U+Sy9O5fXAsJL4UIYVag4PquR7G+MpCTr0SaqITlvvZX3jIwm/8s4w5/cHRMSe3aOKZFifRYqRlXNBLOy+m4YJ2mCTjRWm6KFB97OxfU7qvPvYaw3uMS8nz5+fn/p9aRfdOi3vs1rnep2Yaw3oRGtzjOi7u50Qu9uK3uw97zMKhMfN0i7/Wknil8/SIxC6VR3P74GhIfClCCo0HBzdtTYzxlYlq14wTTVJ6MSL3RbjNfbI05uQWxs5t61jpxY76OVrA+jGWCbNb+IRFiO5P0x2XLlxT91DQziO3r072GsNzjhlw90WwEO0f0wuh5GIIDsI0hlPjSFD51xzfiX0emT7gqER5uh9n7p3rId7uMR3/xP2Qy6OzcywcEokvRUih0eCIbmLYMmN8JcHtiquemMJJKtxOJUg4KdH4FaJYxZjvfuifHWoC8/Z1hcC4MI3aCdI2KBZy/Y8Y7UZy++pl7zG86xhHP37lT/f08dKexelJmcZwnFNlnA6FoP8nVoncbMRvVh9wVMw87bBy4IT5DrPELpVHc/vgaEh8KUIKDQeH3PS32iRfM1N8U8lILSizk5m0D7dJbktjTm4zFhjj5Oa9ch7EWPUj74IMCxmtyxXhq++unTF5Zvp3JNu15PZVzl5jeNYxLSpmXs4PYwJHZ4qvLkIkjipeOi7muLH27dEHHBUzT/eYhUaPvS+XR3P74FhIfClCCvUHR/xKDGwbHV/396dBQpIkN77ztWOS8hYrvGO2CszJLYxdFCsZ591+f5LrFqpDjP2/V9b4C1qvD3fu1KSa6T/XLttn/ew1hlt2H5NZqIT3DhydKb5q/g3j4LZz+4z47dMHHJUxxlEulrHYxySTp31yeTq3D46FxJcipFA9wXkDAqrAj29Lm+j0K9le0stNYA65P7q39sNFDixDFF/BiJ1MRmPMxzGuFj0jKsbehKjpJrpubvP70OfRTvOg3X+u3e4+62avMTyQPMZfpAy4xUp7zCMsTk/OFN/0WDrTn0gXxsjb7uI75OfZfcBR0WPYi0mw3krui+KVy9NzcjgcEokvRUih0QQHVUF864b41g8xrpspvrJ4DF8UgBo4xBi+PKdoXCsSX4qQQpng6ob41g3xrR9iXDcS3+EVcF65rpOrj+EbzcUFJchakfhShBTKBFc3xLduiG/9EOO6Ib71Q4zrRuJLEVKo/PKIiIiIiLi/FCGFTr881AjxrRviWz/EuG6Ib/0Q47qR+FKEFMrgqBviWzfEt36Icd0Q3/ohxnUj8aUIKZTBUTfEt26Ib/0Q47ohvvVDjOtG4ksRUqg3ONxnUfM9EDUxxlfFVlse5+7z6M3vauAz6E+GP7nN+Hx4Mzb6+wnSfejPsI/vHdVHcK/590jmOebaZfusm11jOLoW4XeExAeMMXD7GauLsjtHz/jYXtf2EHHM5HUoZv46a0YOd+SOm9sHHAqJL0VIodMvLzfulOxkwcENvH38CS6epMrjzGS1Bqbx68fDxTUMTr84jSY+uTfae+CRHX34364eMPbh5xH3+Lid6z/XLrevfrJjOLwWbYzj4lB/OWG3QNFxJNcvy64cPYurtPUgrx8Df50V5MBx7M3I4Y7ccXP7gEMi8aUIKdRLgN5EJIPlEEkNlmTnBBc93iXJ3a/SBN++229Lm4dyfbrj9AIydz7YhT+5qesXxEAKCPeK6qVxH8jC1QUy14dMbpmF/9DH2NfEVLxk+s+1y/ZZP/kxrOPiL0BGpN2Q280+JC6Z2MJR2ZmjB/o4XrT3vuRLsYu1n0MfcsdN+dgd4voO2w2o9jqvC9l2MJf8OmsYe5n86JE7bm4fcEgkvhQhhU6/vB4Mcu/y6lgN7JrgwjjL4m581VQWf5l946Tk+g4nrulcUZ/qPsudD3Yzb3JTGPfBuKDP9iE/T4uRcEEy9hGh+pj7HB2l++ojO4b1NbX2R3SFCuNsPezK0SNufyJf6rb9cdN4DMZLcJ5kXt/RDuYzK0/n9mkO0QccFIkvRUih0y8vyA07vCKib2TYKv4E5y8i4zhL/PUkoxNYuE+96ur6Vvu8batdqk99PpjDGN+ogEtcyzBWOh65Plw73Z+Oo/5Z090j6SIzFe+gnUduX53MHsOy37u+GfrFpmvPmFuUveKbyrOpn0103tU/C934Sr+gkOsXUkzrLLmG0/V1LwIO429ufswdNzvHwiGR+FKEFOonQHWzys1Mwtk8fnxVPF18g+QUTV5qcWlMbN4r6Hqf3pafvaSY61Ptg1l48Z0z+VixGtrN7aMn/Q6KIG2DYmFW/0a7kdy+ekmOYYdaNIb73Xb/olImjt1xjLulyMdXYca33079rJDxOhY2mWPDdzXNdrAXY4wFd827a3rt4tKfD+fm8NRxc/uAgyLxpQgpdPzlqaCrJDfBda/C6Mck5uH2cA+E+3YtfoZtq12qT30+mMOUvIJracTbET4u435ccczso2dcrHh9tLh2/kKmY0f/yXYtuX2VkxvDwrRoVGPSQ42rMFY94cITTseu+I6Y46XfTv3skPir+Hr7gzHp3UO5drAPU54O0dc/iEXyeueOm9sHHBKJL0VIoX4CVAtA90o5N+/WyU9w3YSjFyWyGBlfaQ4K03CfvJLjmoZ9B9tRn+o+y50PdjMlry6Ww7VMfiqKEZvpsEwfUWzk2K4frw/Xv+5Tk+k/1y7bZ/3kx7AsOsK8HRTy3mNyfHgtgz7gpOTjqwj36+3Uz4K5nc7B+bzOfVLClKf9sebn6Zk5PHvc3D7gkEh8KUIKnX75lj4BdW+7kmxqYOcE5x5Xk5BLksOfcITHdwnO7dOfomJOVrqt6vP8ou1D31u588EuvPGrr2WqmPNiI/EMx3m6D5nQ5PEuVkM7vw99jHaaB+3+c+1291k3/hjurl32OgTHxeNqikG3n1y/JLviK+7Os11ullg/FB7X4o3d8BOw+rbWvnw7mEtynRXl6UT+jWKay/W5fXAMJL4UIYV6gwOqY3XxNSZIKIfxWz/EuG6Ib/0cIsaX58yba0XiSxFSKAmwbpaP7/Qqm3tlhlddDwrjt36Icd0Q3/q5eozbefSCEmStSHwpQgolAdYN8a0b4ls/xLhuiG/9EOO6kfhShBQqvzwiIiIiIu4vRUih0y8PNUJ864b41g8xrhviWz/EuG4kvhQhhTI46ob41g3xrR9iXDfEt36Icd1IfClCCmVw1A3xrRviWz/EuG6Ib/0Q47qR+FKEFOoNDvfxqf3nS/MxqlUwxlfFVlse5+5Tr8zPjOdjeE+GP7nN+Hx4MzYSy+FTy9J9hN/X4d87qo/gXvPvkcxzzLXL9lk3u8ZwdC3U9xCI8ZeVTTFw+xmri+LHd6WxWPNz2wB+nh6w5tC53/GRO25uH3AoJL4UIYVOv3x34w4DQhYc3MDbZ9cEVx7nTBECJ2Mav348XFzD4PSL02jRKfdGew88sqMP/9vVA8Y+JI+oj2F2992wnes/1y63r36yYzi8Fm2M4+Iw/jJSHUdy/bLsytGrYM3PbQNMeXpCxp3k42kszsjhjtxxc/uAQyLxpQgp1EuA3kQUTPywSXZOcNHj3SLFXKzqfeE3pvfb0uahXJ/uOH1f5c4Hu5iSl1xHdf2CGEgB4b6j5dK4D2Th6gKZ60Mmt0w+GPoY+5qYipdM/7l22T7rJz+GdVz8BciItBtyu9mHxCUTWzgqXXz9PPiQi9mUU128XOy6Y0Qvzu0YGR7382g35i76BW/8PU3+ecd26vxPfOK3NN8aHZNoByZTnu5R13eKYxcrLwbmtc0dN7cPOCQSX4qQQr0JjiKkOrz4GskofBVUFnfjq6ay+MvskwnIJVDXt0qmwbmiPtV9lTsf7Gbv8WvcB+OCPtuH/DwtgMbY94x9RKg+5j5HR+m++siOYX1Nrf0RXaHCOFsPZnzdz+ECVd3zXqxl3xR3/9Vv2afi7fLvdGwy/4bnD+4t3Y5X23czxtgxvHAQvGgg13hOfswdN7cPOCgSX4qQQqdfvktWw4BwiYWbd/P4E5y/iBT9xYjcA9NE4yewcJ9KoMEE5W9b7VJ96vPBHMb4RgVc4lqGsdLxyPXh2un+dBz1z5ruHkkXmal4B+08cvvqZPYYlv3e9c3QxmJsz5hbFD++/diMxmmIzp25vCn7dDGjx6ruQ1D9hOf3tsPzhf1AyLTOkkt5rc9fXS4bYzM3P+aOm51j4ZBIfClCCtWDo0s03SR37eJSJSvYKuYEJ0iyCpNTNPGpCSvaJ13MKELkZy8p5vrUEyTMwYvvnMnHitXQbm4fPel3UARpGxQLs/o32o3k9tVLcgw71EIm3O+2hz+ZyYwrdxzjbinM+Jqx7sbcVDzOiXU8xpJ5291L/bHhPm+7G4fD84jPCSF2nlZj123qfYKVH1tyx83tAw6KxJcipNDplw+RmzdOgrAtzAmup3u3Sz8WxlwnsHDfrsXPsG21S/WpzwdzmMZvcC2NeDvCx6UYHWfBmX30jIsZr48W105NriM7+k+2a8ntq5zcGBbGOOgx6aHGVRirnqkPODVmfKNYSwxVjBL3gsN7NVzF3jEz/4b9e9thO9jFEGOZc3XxNti9sBJc12SMc8fN7QMOicSXIqTQ6ZdXCaiFv/OsA3OCG+kWLTrOshgZX2n2JrN4nyRP1zTsO9iO+lT3We58sJtp/HaxHK5lcvwasZkOy/QRxUaO7frx+nD9pxa0mf5z7bJ91k9+DPt528XJW3S2eI/J8eG1DPqAk2LGN4y1ud3HLByb3nYX79Q4TubfHecnb+/HlKc1XT6cxuLMHJ49bm4fcEgkvhQhhXqDo00mQ2VOUqkDc4LTuMfVhNJPWu4eiI7vElx3f6hP9tgxYXl9nl+0fegFT+58sAt/clPXMjV+vdhIPMPFZ7oPmdDk8S5WQzu/D32MdpoH7f5z7Xb3WTf+GO6uXfY6BMfF42qKQbc/vAfglExjuMuvEq+HohzqjwMv/7ZIUTDFM8y915rz865tHGs1HnW76PzTc+se0+24f3bh5+mB7pr649fOj3E8Esc5cvvgGEh8KUIKtQcH1MLq4mtMrlAO47d+iHHdHDe+siClSFiaQ8T48px5c61IfClCCmWCq5vl49u92iOvyvCq2eFh/NYPMa6b48aXImQNXD3G7Tx6QQmyViS+FCGFMsHVDfGtG+JbP8S4bohv/RDjupH4UoQUKr88IiIiIiLuL0VIodMvDzVCfOuG+NYPMa4b4ls/xLhuJL4UIYUyOOqG+NYN8a0fYlw3xLd+iHHdSHwpQgplcNQN8a0b4ls/xLhuiG/9EOO6kfhShBRqDg7zY1T57OktMsbXxXT6lKrp06pKP/bP+ozzHj6G92T443fGGDVjI7EcPkEn3Uf4fR3+vaP6CO61WZ+DL+TaZfusm11jOLoW6vuexPjLyqYYuP2M1UXx47vWWGTyPexk7jorn2PnrsFyx83tA/ZB4ksRUmg0OPoJLF5gTAlIBgrfwrkNdk1wLpZFyYhJaQ1M43fGGDXHdovcG+098MiOPvxvVw8Y+5BJTn0kqLvvhu1c/7l2uX31kx3D4bWQb682cnf4ZaQ6juU5AA7Brhy9Dsj3V2HeOkseTl3jGfndkTtubh+wLxJfipBC9eCQAeC+x+EyTIYycantVSdL0Oyc4KLHu0WKuVjV+8JvTO+3pc1DuT7dcXoBmTsf7GIav/kxmh7bLbJwdYHM9SETmI5bwNDH2NfENLFm+s+1y/ZZP/kxrOPiLzJGpN1QZJh9SFwysYWjEsb3vL23JR+KfiwzubIdI0Mbf1835i7aBWe3L4xzpk+9L/iG9u65znies/N9fx9fTL+HK5zV7zUV0ttj3jorl2O7OI7HmuNYyB03tw/YF4kvRUihenCMhDenbHuvlMnNnBossCbCCS5MOOGroJIgx2Qvi7/MPpkY3OTj+g4nqOlcUZ/q3smdD3bjxXfOGDXuA4nBGMdkH/LztOgYY98z9hGh+pj7HB2l++ojO4b1NbX2R3SFCuNsPfjxnZ9/p30yHqa4+69wyz4Vb5d/7dwcvjIenm8a88H4C+676HmqY9Pn6+/LYbu/Fv72rnt7vcxaZ7nrmsixcqw3ZhM5MHfc3D5gbyS+FCGFzhocQTLk5t0O4QSnE5wYxzVMikOcw33qVdfwfvG2rXapPvX5YA5jfOeO0TBWOh65Plw73Z+Oo/5Z090j9sJJSMU7aOeR21cns8ew7Peub4Y2FmN7xtyi+PGdm0f12EmNI0H26RcI9FgN2+lz6J+FbtxN/Wh2tZtzPn2cEG6HbbfFrHWW205cg7m5M3fc7PwL+yLxpQgpdPbg4ObdJMkJThJSGMPwGJ0Eo33SxYwiRH727p1cn+HEA7vw4jtnjFqxGtrN7aPHi7/XTpC2QbEwq3+j3UhuX70kx7BDxkxuHA5/+pIZV+44xt1SJOOrt8N9Lu4qZslYx2NsHLdun1/Ujm2j8+l2HbI9tVPP0xvj+nlmzhf+PtF2/HtsiVnrLIN0jk1cj9xxc/uAvZH4UoQUOm9wyM2qtmcMHlgHyQmuxb0dnouz2x6SVLhv1+Jn2LbapfrU54M5TOM3uJapMRo+LsXouLKY2UfPOEF6fbS4dv6CpWNH/8l2Lbl9lZMbw8K0OFRj0kONqzBWPeECE05HMr7edjB2dExDvFe8w+Ny+VcT7tP3luxT90v2ec49nz5OCLelrd7eFvPWWTHTuAyuXbJt7ri5fcC+SHwpQgqdNzi6BDS8Ahn+7Sisl+QE5+jiqmMpSW98pdmbzOJ98kqWaxr2HWxHfarJJHc+2M00fmeOUSM202GZPqLYyLFdP14frn/dpybTf65dts/6yY/hYHEWjC+H95gcH17LoA84Kcn4BtvJXBmOTW+7i3dqHOfyb7gvn+8zOT23bzyf5AZ9D4bb275HZ62zguvfXYNhfyZ3euSOm9sH7IvElyKk0FmDw9ElM/cWqjdQYM0kJ7gB97iaGHSco+O7JNbdA+rTUsK+o3OpPs8v2j7CySV1PtiFP35njFEvNhLPcGJP9yGTljzexWpo5/ehj9FOc53df67d7j7rxh/D3bXLXofguHhcTTHo9m93cVcDyRydy6NBTGVxb8db2lxrzs/nfDpWuC+R72WPzgXBPq/PbL7Xj4e5KNzufg//+W2HuessO8cOqGunc3PuPonmgdw+KEXiSxFSqDk4oBpWF18j8UI5jN/6IcZ1c9z4Lrx4J987jj2GL8+5xksi8aUIKZQJrm6Wj+/0apr96g5cBcZv/RDjujlufE9dhJDvLY4b4/aaX1CCLInElyKkUCa4uiG+dUN864cY1w3xrR9iXDcSX4qQQuWXR0RERETE/aUIKXT65aFGiG/dEN/6IcZ1Q3zrhxjXjcSXIqRQBkfdEN+6Ib71Q4zrhvjWDzGuG4kvRUihDI66Ib51Q3zrhxjXDfGtH2JcNxJfipBCzcGR+1g9PnJvU4zxdXGbPrVk+vSS0lh2n4JiflcD98jJ8MfvjM+AN2OjP5M/3Uf4fR3+vaP6CO41/x7JPMdcu2yfdbNrDEfXov9iucH4C8mmGLj9jNVFiedg4xOtzHELW8GLsRqf4djL51hNLtfn9sExkPhShBQaJcB+gJg3f24frJIxvolJTJJeWaLKFCFwMqbx68fDxTUMTmr8yr3R3gOP7OhDvhAtGe+xj2AB5e67YTvXf65dbl/9ZMdweC3aGPvx7a55+GWkOo7lOQAOgTUHn5+fq5i1WLGHzZAaw3vl2JFcHp0xD8DBkfhShBSqE6AMAPe53pdxwsvtg/WSSn4j0ePqVZToeLUv/Mb0flvaPJTr0x2nF5C588EupvEr11FdvyAG2fErC1cXyFwfMrnpuAUMfYx9TUwTa6b/XLtsn/WTH8M6Lv4CZETaDUWG2YfEJRNbOCp6Dp7i2cZEF4bWWLyYXlF3BUs7TrztEYnvjJzu3QO5NrAvfowVVlx3jkOJjYqJ10duHxwLiS9FSKHm4MjduNzUm2KMbyJu4augsrgbJzBZ/GX2yQTlFjyub7X4Cc4V9akmu9z5YDdefL1rJ5ORMaEZ98G4oM/2MS1KBvVid+wjQvUx9zk6SvfVR3YM62tq7Y/oChXG2Xrw5mAVT29MebHtYzjsdPvC7Uz+HWPf9TOeQ+0jLx8Wc53V4r9Tkc+xI+oe6SjNsXAoJL4UIYWagyNIYh65fbA6xvi6uPkJTvQnF0lYOrY6gYX71AQW3hPettUu1ac+H8xhjG+0UEhcy2j8qnjk+nDtdH86jvpnTXePpBczqXgH7Txy++pk9hiW/d71zdDGYmzPmFsUPQfLotQbL2ZhEY63cFuPK/k5kWOjXDCQaQNFROusfix7Y889pq9zGNeeXB6dnWPhkEh8KUIKjQaHkExOLbl9sDrG+IZxk2QVJqcotioJGnH3XkHX+/S2/OwlxVyfiaQLSbz4zpl8rFgN7eb20ePF32snSNugWJjVv9FuJLevXpJj2CFjJjcOhz+pyYwrdxzjbimmObiL5VAcdnFTeXSMbZgnw201rqJ7Rh0r+6Jx25JrA0WY6yyHlQMnvHfDBqK4BfHeI4fDYZD4UoQUag6OKAkpcvtgdYzxNeLm3gr2HpOEFW4PCSzc102YO4sQs12qT30+mMM0foNrmRqn4eP61da5ffSME6TXR4trZ0yeu/pPtmvJ7auc3BgWpoWKGpMealyFseoxFztwErz4BkWBV+iPsQ+LgnBb59FgzOl9ifsp2waKMNdZPbmxZ+8L4uPFMbcPjoXElyKkUHNw5G5cbupN4U1wUdy6RYtelEjS8/4cQE2K4T55pS6eIFuC7ahPNaHlzge7mcZvF8vhWiY/FcWIzXRYpo8oNnJs14/Xh+s/Nalm+s+1y/ZZP/kxHCwQg/Hl8B6T48NrySJzSYb4yniI7nGJnTzoxV7GkY5XuO3HM51ju/E4nlOdg7x8WMYxHF1LFato35RjfTJ5NLsPjoXElyKk0OmXV5iTXU9uH6yOMb6puLnH1YTjkuLwJxzh8V2Cc/vCT8fSx0bnUn2eX7R9hBNm6nywC3/8qmuZWjR4sZF46lgI6T5kQpPHu1gN7fw+9DHaaR60+8+1291n3fhjuLt22esQHBePqykG3f7wHoBT0sVXxpGV/yRW15rXvis3bsPtro2/3Y+5zL3g3we5NrAvOk/bebQjuS83p0a5PrcPjoHElyKkUD04oD5WF98omcJVYPzWDzGuG+JbP4eI8eU58+ZakfhShBRKAqyb5eMrr9J1r8pEr+7AlWH81g8xrhviWz9Xj3E7j15QgqwViS9FSKEkwLohvnVDfOuHGNcN8a0fYlw3El8pQkqd7g97nX4oV1uEICIiIiJimfJOSInStsNepx9K3gmBk0N864b41g8xrhviWz/EuG4kvleJ8dTWXqcfSooQODnEt26Ib/0Q47ohvvVDjOtG4jvE+ObNm3s73R/2Ov1QUoTAySG+dUN864cY1w3xrR9iXDcS3yHGVpGxy+n+sNfph3I7RYj1MarBZ8/fKp/Rv3XG+AbxGyz/DPjuU6/M+4CP4T0Z/vid8fnwZmz09wyk+wi/r8O/d1Qf2VyReY65dtk+62bXGI6uxWX3RaKD8ZeVTTFw+xmrizKNYT0OCzHHNyyNn6e7ubMbe3688zlWk8v1M+YBOCgS3yHGVpGxy+n+sNfph3IbRUg/gfk3v9zUarC4RHfFZAknYYxvYnKSpFeWqDJFCJyMafz68XBxDYNjju0WuTfae+CRHX34364eMPaRyxW5/nPtbu38kx3D4bWQb132jumuefhlpDqO5TkADkE0B18F6x6BxdEx9vJo8C3p2Rw7ksujM+YBODgS3yHGVpGxy+n+sNfph3L1RYgMAFeZXwaJTAZKcCPPGyywNGN8U5NT9Hi3SLFfhVH7wm9M77elzUO5Pt1xegGZOx/sYhq/ch3V9QtikBzbwji+c33I5KbjFjD0kc0Vmf5z7W7x/JMfwzou/gJkRNoNCx2zD4lLJrZwVKYxHIwxF6suN4pjXPt4XrRjwN9n5NJsH1PO9u8HODTJPO2xI8eO5PJ0bh8cC4nvEGMpKobxlpMipHf65RU7b1wmra0wxjcR0/BVUFncja+ayuIvs08GkpvUXN9q8ROcK+pT3Tu588FuvPh61y4xRo37YFzQZ/uQn6fFzBj7nrGPCNXH3OfoKN1XH9kxrK+ptT+iK1QYZ+thmoP1IjS4x3Vs3c+JvOndA7v7sMcsHJowTw8FpP/nWBKvdI4d6fsYm+k45/bB0ZD4DjEeCgsdx1BdgIhTDrDX6YeykiKkm8TGBAirxkt+QYIT/cWIJCwdd53Awn3dfTAuXvU+b9tql+pTnw/mMMY3KuAS1zIa2yoeuT5cO92fjqP+WdPdI+kiMxXvoJ1Hbl+dzB7Dst+7vhnaWIztGXOLMs3BqXEkqFwZjmG9He7zyPQBRyUcw2NxIdt6/CZzrCKXR2fnWDgkEt8hxrq40Hl6UO8fnHKAvU4/lBUUIXJDU4BsCT/5qZhKsgqTUxR3lQSNe8J7BV3v09vys5cUc33mJmGw8OI7Z/KxYqUnwT0msPQ7KIKRK2b1n8sxuX31khzDDhkzuXFoveIa4I5j3C3FNAfH+U/G2LB48f/EKoxzYl/LrD7gqOydp3vMd5hzfezZPxwGie8Q47DAGMaeGO4bnHKAvU4/lNsuQtxjxoCAVeMlvyCm7k+xvMckYYXbQwIL9+1a/AzbVrtUn/p8MIdp/AbX0hrDQvi4FKPjoJ7ZR884QXp9tLh2Vq7Y0X+yXUtuX+XkxrAwLVTUmPRQ4yqMVY+52IGTMI3hMDeqmOjYm+PG2rdHH3BUvDx91SLEtUnEP7sPjoXEd4ixVWTscro/7HX6odxuEeK2maS2yBhfMxl1ixa9KJGkN77SHLy1G+6Tyt41Ne+XaTvqUyXd3PlgN9P47WI5XMvkp6IYsZkOy/QRxUaO7frx+sjmikz/uXbZPusnP4aDRUwwvhzeY3J8eC3zCyE4Lv4Y7uMQxtpt5/b126mfhVwfcFT0OivKl0NezeRYn0weze6DYyHxHWJsFRm7nO4Pe51+KDdbhMiNrN9SGuTeXj9jfFOTjnt8SlrDIkXiG39qSpfg3L7+k1XcPRD2HZ1L9Xl+MU20jtz5YBf++FXXMlXMebFRi56RdB86D0yLWr+P3bnC7j/X7lbPP/4Y7q5d9joEx8XjaopBtz+8B+CUTGM4PZbm59suRw8xn90HHJVkng5i4MVLj8soXrlcn9sHx0DiO8TYKjJ2Od0f9jr9UG6nCIFqWF18mfwOCuO3fohx3UzxlcUjBWGNHGIMX54zb64Vie8QY6vI2OV0f9jr9ENJEQInZ/n4Tu+eRK/uwJVh/NYPMa4bie/wCjivXNfJ1cdwO49eUIKsFYnvEGOryNjldH/Y6/RDSRECJ4f41g3xrR9iXDfEt36Icd1IfMWhoCixw16nH8rVFiFXuXCIiIiIiFhmh71OP5SrLEKkAAEAAAAAgKWw1+mHcpVFCCIiIiIi1itFCCIiIiIinlSKEEREREREPKkUIYiIiIiIeFIpQhARERER8aRShCAiIiIi4kmlCEFERERExJNKEYKIiIiIiCeVIgQREREREU8qRQgiIiIiIp5UihBERERERDypFCGIiIiIiHhSKUIQEREREfGkUoQgIiIiIuJJpQhBRERERMSTShGCiIiIiIgnlSIEERERERFPKkUIIiIiIiKeVIoQREREREQ8qRQhiIiIiIh4UilCEBERERHxpB6kCEFERERERNxHq7YQZxUhiIiIiIiIh5IiBBERERERTypFCCIiIiIinlSKEEREREREPKlShNx2223N4x//eIoQREREREQ8vhQhiIiIiIh4UqUIkT/FckWIbCAiIiIiIh5bKUCe8IQnNF8gb4mI8p9EMPa22767+du/+tvN3/627hp127/c/LW/GV+z277tDc03tcdGvua7o2MHs/1l9rn9cr43vXz244O3/c2XN3f+6huaL0/E/a+9Sf2+7ljjd9Jmfr/BL39NfFzueerf/ZjPQSyJW87b/tbLm//z/b/TvH+HF99uX/9dPv/v/Onm5U/22972pD/f/Mtvflzz9/uYdtt/unlrzq//r6f2T35c89a/8+fdz3//6/391vnm+tTXf1Hzohf9N9HjX/mixzX3v/4vRo+L0ubuZwW/321/sbn7Q49rvuXrpsdve9afa+7/0BfFBv26437hL3iPjftUv7d93V9oXmT1p008Z+v55Xz5e240v/Pgd5n7Snzcv/ix5k9935Pdz7d90/c1f/Jf/E/RMeO+N/1Y7Eu/3jxevO22r2/+zJv+SfO4vxb/brl9bn/iueSe41V9ysvf1fzO7/xU893Ma4iIq3KoObp3Qh7f/P8uuMK9g37TMwAAAABJRU5ErkJggg==;" vertex="1" parent="1">
          <mxGeometry x="256.79" y="979" width="577.41" height="434.16" as="geometry" />
        </mxCell>
      </root>
    </mxGraphModel>
  </diagram>
</mxfile>
